<svg version="1.1" id="Layer_1" xmlns="http://www.w3.org/2000/svg" xmlns:xlink="http://www.w3.org/1999/xlink" x="0px" y="0px"
	 width="100%" viewBox="0 0 512 512" enable-background="new 0 0 512 512" xml:space="preserve">
<path fill="#000000" opacity="1.000000" stroke="none" 
	d="
M1.000000,218.000000 
	C1.000000,215.299957 1.000000,212.599899 1.365839,209.337112 
	C4.133401,202.345154 6.112360,195.706360 9.144647,189.589737 
	C10.359751,187.138672 13.703698,184.656342 16.404543,184.223969 
	C26.064823,182.677505 35.888870,182.184402 45.597473,180.891266 
	C48.590836,180.492554 52.940754,181.476868 53.919617,176.995560 
	C56.431618,165.495453 58.479897,153.891724 61.128323,142.425232 
	C61.887741,139.137283 63.249649,135.011871 65.735458,133.279190 
	C73.758179,127.687134 82.484474,123.114281 90.834213,117.977295 
	C94.780708,115.549309 97.245262,116.427055 98.931190,120.602921 
	C102.587387,129.658966 106.330948,138.679688 110.005013,147.728561 
	C115.367958,160.936966 120.659599,174.174423 126.057297,187.368561 
	C133.336685,205.162338 140.723938,222.912003 147.997238,240.708252 
	C154.057022,255.535248 159.975143,270.420135 166.036606,285.246460 
	C172.645157,301.410980 179.371719,317.527222 186.000717,333.683411 
	C193.574677,352.142609 201.097809,370.622620 208.635010,389.073914 
	C215.521225,387.150604 222.086624,385.316864 228.764938,383.451599 
	C190.320953,291.513641 151.509842,199.740662 112.639153,106.442665 
	C120.362038,107.616615 126.118835,108.491707 131.559891,109.318802 
	C167.237595,199.945816 202.841583,290.385590 238.429626,380.784851 
	C240.298950,380.784851 242.073807,380.784851 244.103928,380.784851 
	C236.190613,360.366882 228.503738,340.174438 220.547974,320.088440 
	C208.160233,288.813171 195.488403,257.650391 183.123734,226.366104 
	C169.113831,190.919220 155.197693,155.433899 141.565781,119.840805 
	C139.957703,115.642120 136.159027,111.781609 137.980453,106.516586 
	C140.189133,100.132126 142.272827,93.704437 144.427872,87.243706 
	C151.127243,90.247818 157.602219,93.066452 163.973953,96.101799 
	C164.908386,96.546936 165.639481,97.933937 165.978516,99.034859 
	C169.706039,111.139061 173.408417,123.252007 176.980453,135.402908 
	C186.028397,166.180878 194.995682,196.982574 204.015060,227.768967 
	C211.996292,255.011871 220.032013,282.238861 227.991562,309.488068 
	C234.378098,331.352112 240.700348,353.235016 247.016312,375.119598 
	C248.086243,378.826843 249.615646,381.301575 253.989548,378.372955 
	C253.004150,375.088409 251.985382,371.746124 250.998444,368.394440 
	C242.662094,340.084564 234.326172,311.774506 226.000671,283.461395 
	C216.996231,252.839386 208.033768,222.205002 198.996246,191.592773 
	C190.413712,162.521637 181.744186,133.476181 173.145569,104.409790 
	C171.398193,98.503052 169.988983,92.576805 173.089462,86.604996 
	C174.196960,84.471901 175.371231,82.272987 175.900543,79.963303 
	C176.733841,76.327034 178.637543,76.424187 181.296616,77.758850 
	C184.604172,79.419022 188.143478,80.731773 191.164368,82.804344 
	C192.876358,83.978920 194.309921,86.214394 194.892441,88.251305 
	C196.350754,93.350708 197.225128,98.615395 198.382553,103.802895 
	C201.574234,118.107933 204.845322,132.395462 207.984024,146.712067 
	C211.986664,164.969269 215.893448,183.247482 219.835571,201.517944 
	C222.894730,215.696091 225.962204,229.872482 228.994293,244.056442 
	C232.835846,262.027008 236.622177,280.009430 240.475937,297.977356 
	C243.617783,312.626038 246.795349,327.267181 250.009857,341.900085 
	C252.729935,354.282257 255.525665,366.647827 258.295959,379.056854 
	C260.017639,378.496002 261.365295,378.057037 263.118073,377.486053 
	C262.887512,375.988403 262.726227,374.400177 262.389893,372.849945 
	C260.955322,366.237915 259.438080,359.643738 258.007507,353.030853 
	C254.089050,334.917816 250.216614,316.794861 246.292252,298.683105 
	C243.221634,284.511597 240.071625,270.357269 237.009094,256.184052 
	C232.822739,236.809769 228.722321,217.416885 224.516464,198.046875 
	C221.063919,182.146240 217.497528,166.270370 214.006699,150.378006 
	C210.343323,133.700150 206.324951,117.086586 203.235291,100.302528 
	C201.817261,92.599281 196.697342,84.402145 204.531799,76.724281 
	C207.172119,74.136719 209.146973,73.036774 212.297638,74.819191 
	C216.353745,77.113853 220.258942,79.692398 224.400970,81.813087 
	C228.319199,83.819183 230.900497,86.091072 230.136780,91.131409 
	C229.738907,93.757256 230.731216,96.594704 231.101349,99.335793 
	C232.733109,111.420021 234.429474,123.495956 235.979248,135.590668 
	C237.118912,144.484634 237.992233,153.412643 239.122116,162.307968 
	C240.330460,171.820999 241.739090,181.308395 242.988617,190.816422 
	C244.113098,199.372971 245.096008,207.948151 246.222763,216.504395 
	C247.432343,225.689499 248.822388,234.851379 249.975784,244.043198 
	C251.113007,253.106033 251.963028,262.204926 253.103455,271.267334 
	C254.300629,280.780579 255.737244,290.263428 256.986908,299.770416 
	C258.111755,308.327972 259.066376,316.908051 260.203735,325.463867 
	C261.402679,334.482758 262.782166,343.477600 263.984619,352.496033 
	C265.117462,360.992432 266.122467,369.505890 267.193542,378.090607 
	C269.462402,377.977875 271.205597,377.891266 272.748077,377.814606 
	C271.460938,367.878326 270.178223,358.386047 269.015015,348.879120 
	C267.905945,339.814331 267.008026,330.723297 265.858459,321.663940 
	C264.672028,312.314117 263.242767,302.995300 262.014923,293.650421 
	C260.869263,284.930756 259.896973,276.188385 258.759491,267.467590 
	C257.561188,258.280304 256.176392,249.116943 255.022995,239.924316 
	C253.885971,230.862183 253.048416,221.762039 251.877243,212.704742 
	C250.356049,200.940598 248.555679,189.212601 247.025909,177.449493 
	C245.869415,168.556824 245.030975,159.623047 243.900742,150.726654 
	C242.692307,141.214752 241.312714,131.724548 239.998489,122.226158 
	C238.773407,113.372070 237.988708,104.426392 236.188629,95.690308 
	C233.975082,84.947487 234.445801,84.559509 242.886917,77.814308 
	C249.334991,72.661720 254.214310,73.296448 260.960236,77.091179 
	C266.647156,80.290192 269.951721,83.660629 270.040558,90.247032 
	C270.246307,105.500511 270.662445,120.751190 271.001251,136.002823 
	C271.328979,150.754730 271.733948,165.505264 271.984436,180.258453 
	C272.376343,203.342148 272.613129,226.428528 273.031494,249.511673 
	C273.162994,256.767487 273.855865,264.013733 273.966278,271.269287 
	C274.383362,298.685791 274.581848,326.105804 275.052612,353.521210 
	C275.190918,361.574646 275.959534,369.617218 276.437653,377.637207 
	C278.256012,377.637207 280.104309,377.637207 281.985291,377.637207 
	C281.620819,375.199951 281.091492,373.130188 281.035126,371.047638 
	C280.635773,356.297638 280.331970,341.545044 280.000488,326.793243 
	C279.665314,311.874847 279.334778,296.956329 278.999603,282.037933 
	C278.668182,267.286102 278.328979,252.534454 278.001282,237.782547 
	C277.662445,222.530914 277.337585,207.278961 276.998779,192.027328 
	C276.671051,177.275421 276.313019,162.524170 276.005402,147.771851 
	C275.649139,130.687317 275.838196,113.571358 274.805267,96.528763 
	C274.212524,86.749100 276.045837,80.933517 286.629120,77.623070 
	C295.902679,74.722305 303.441528,70.796410 310.851654,80.830055 
	C312.713440,83.351006 314.252197,85.116997 314.005402,88.186394 
	C312.993164,100.773422 311.942657,113.357796 311.020447,125.951508 
	C310.263885,136.282410 309.659393,146.624512 309.004242,156.962723 
	C307.995270,172.885056 307.020813,188.809586 305.992523,204.730652 
	C305.367737,214.404129 304.628632,224.070251 304.012909,233.744263 
	C302.978394,249.998260 302.028992,266.257690 300.989441,282.511353 
	C300.381348,292.019226 299.569061,301.514771 299.025726,311.025970 
	C298.264069,324.357880 297.683472,337.700104 296.980713,351.035553 
	C296.886810,352.818115 296.426178,354.580353 296.315704,356.363190 
	C295.851990,363.845337 295.456909,371.331757 295.022980,379.060638 
	C297.334595,378.953247 299.072510,378.872498 300.522308,378.805115 
	C301.039642,372.994354 301.598053,367.607544 301.982971,362.208374 
	C302.707703,352.041718 303.336121,341.868164 303.997925,331.697052 
	C305.001404,316.274384 306.007599,300.851868 306.997070,285.428284 
	C308.007843,269.672760 308.992310,253.915558 310.002533,238.160004 
	C310.654724,227.988297 311.340057,217.818695 311.997101,207.647278 
	C313.004120,192.058182 313.990906,176.467758 315.002991,160.878983 
	C315.652557,150.873764 316.415100,140.875122 316.977997,130.865173 
	C317.727814,117.532593 318.488922,104.196503 318.886261,90.851242 
	C318.981293,87.658791 320.080872,86.078545 322.807068,85.000511 
	C328.313690,82.823006 333.692627,80.288422 339.288910,78.385384 
	C342.381042,77.333878 345.565765,77.439613 347.679871,81.068542 
	C349.464661,84.132233 352.081512,86.706810 353.912170,89.749336 
	C355.863434,92.992233 359.049774,96.724701 358.691803,99.905190 
	C357.337830,111.933884 354.800751,123.831902 352.637634,135.766357 
	C350.129852,149.602539 347.472321,163.411911 345.023987,177.258423 
	C342.825104,189.694153 340.918762,202.181717 338.705933,214.614807 
	C336.242340,228.456451 333.479584,242.244965 331.030670,256.089081 
	C328.830505,268.526917 327.000122,281.030334 324.785706,293.465485 
	C322.321320,307.304443 319.494904,321.078949 317.032013,334.918182 
	C314.323639,350.136841 311.849731,365.397217 309.249542,380.782043 
	C311.153137,380.988892 312.975830,381.186981 314.804657,381.385712 
	C315.904846,374.125946 316.842499,366.879272 318.124603,359.694061 
	C320.991913,343.624359 324.034454,327.585968 326.998688,311.533539 
	C328.994507,300.725342 331.032623,289.924622 332.951752,279.102783 
	C334.704407,269.219604 336.285126,259.306061 338.009247,249.417664 
	C340.204010,236.829880 342.452759,224.251434 344.704498,211.673660 
	C346.784607,200.054672 348.965912,188.453415 350.980713,176.823242 
	C353.136505,164.379120 355.097992,151.901413 357.239563,139.454742 
	C359.433228,126.705093 361.681793,113.963921 364.070221,101.249825 
	C364.404327,99.471329 365.270630,96.909714 366.582489,96.359077 
	C370.993713,94.507538 375.679138,93.238770 380.350525,92.130135 
	C381.441803,91.871162 383.261414,92.791679 384.109192,93.739212 
	C387.033295,97.007401 389.813080,100.430641 392.339813,104.012154 
	C393.075806,105.055344 393.221924,106.934357 392.893555,108.243362 
	C389.922363,120.086189 386.804718,131.892502 383.693420,143.699890 
	C377.472839,167.306946 371.191956,190.898163 365.006439,214.514374 
	C359.835602,234.256592 354.818665,254.039139 349.636475,273.778320 
	C343.478333,297.234894 337.190002,320.657318 331.009918,344.108154 
	C327.656586,356.832550 324.410736,369.585327 321.073547,382.491058 
	C323.190979,383.275391 325.703003,386.201172 326.964447,381.531830 
	C329.393677,372.539978 331.669556,363.506683 334.004578,354.489441 
	C341.093994,327.111938 348.136078,299.722107 355.281311,272.359192 
	C363.479218,240.965027 371.785095,209.599106 380.011017,178.212250 
	C385.713257,156.454788 391.323975,134.673172 397.128754,112.943253 
	C397.442413,111.768875 399.083313,110.257675 400.257721,110.110474 
	C413.461487,108.455421 416.096954,109.982224 422.004761,121.742897 
	C423.586945,124.892593 423.834442,127.638649 422.514954,131.198456 
	C413.829498,154.630890 405.469818,178.184418 397.052521,201.715851 
	C387.017883,229.768845 376.989624,257.824249 367.036407,285.906219 
	C355.798370,317.613098 344.644073,349.349670 333.460663,381.075928 
	C331.703308,386.061371 331.721130,386.067657 336.859467,387.595978 
	C367.078522,302.831421 397.299988,218.060135 427.624298,133.000412 
	C432.071655,133.000412 436.753601,132.702927 441.360718,133.160095 
	C442.996887,133.322433 445.742096,135.289902 445.769806,136.484650 
	C445.906403,142.369217 446.409729,148.612686 444.721558,154.094437 
	C441.381989,164.938507 436.725433,175.380447 432.543427,185.960983 
	C419.414093,219.178452 406.156342,252.345474 393.129211,285.602905 
	C379.139923,321.316498 365.355438,357.110321 351.378845,393.133942 
	C353.749146,394.336670 356.182251,395.571259 358.709381,396.853577 
	C362.810730,386.397827 366.940277,375.974396 370.991455,365.520569 
	C379.382416,343.868073 387.674805,322.177307 396.113983,300.543701 
	C404.671356,278.607178 413.440582,256.753143 421.964752,234.803864 
	C432.398712,207.936783 442.653229,181.000076 453.049377,154.118256 
	C454.152069,151.267059 456.164032,149.944061 459.267975,151.726120 
	C462.192413,153.405121 465.208160,154.926315 468.117340,156.630295 
	C483.090027,165.400116 498.041260,174.206421 513.000000,183.000000 
	C513.000000,184.714417 513.000000,186.428848 512.659058,188.649460 
	C511.737152,189.747192 511.047699,190.265396 510.590973,190.940948 
	C499.038849,208.029114 487.566650,225.171524 475.963287,242.224731 
	C464.796600,258.636169 453.417725,274.903442 442.276794,291.332245 
	C424.363892,317.747253 406.620605,344.277374 388.704407,370.690155 
	C379.827484,383.776794 370.803009,396.766052 361.620453,409.639008 
	C360.536407,411.158752 357.785889,412.788177 356.213165,412.454773 
	C343.956940,409.856567 331.899261,406.239105 319.584991,404.020081 
	C306.793579,401.715057 293.822357,399.943024 280.857635,399.204651 
	C269.497559,398.557648 257.971039,399.019714 246.640289,400.182922 
	C235.430298,401.333801 224.029388,402.876495 213.331192,406.224915 
	C197.933426,411.044281 183.175385,417.870209 167.996017,423.435211 
	C153.108170,428.893341 138.029373,433.829803 123.045219,439.026489 
	C115.524933,441.634583 115.496819,441.584534 111.767616,434.374847 
	C107.626404,426.368591 103.238083,418.489502 99.136642,410.463470 
	C88.446594,389.544220 77.826530,368.588989 67.230362,347.621948 
	C53.368496,320.192932 39.636814,292.697815 25.692095,265.311066 
	C17.620842,249.459534 9.240972,233.765121 1.000000,218.000000 
M146.434814,384.960205 
	C149.933517,383.425598 153.432220,381.890991 157.427475,380.138611 
	C155.439529,376.057068 153.442871,371.957611 151.252838,367.461151 
	C143.213821,371.063568 135.532257,374.505768 127.818787,377.962311 
	C130.223511,381.055481 131.746567,383.155792 126.702286,384.151184 
	C124.107719,384.663177 121.742920,386.339478 119.274292,387.489624 
	C119.407631,387.898956 119.540970,388.308289 119.674309,388.717651 
	C121.090088,388.329620 122.568916,388.091919 123.911217,387.528748 
	C131.531967,384.331390 131.520859,384.304901 134.771698,390.047974 
	C138.389374,388.380096 142.017929,386.707153 146.434814,384.960205 
M127.038666,322.407806 
	C125.989746,320.273010 124.940819,318.138245 123.865738,315.950226 
	C114.915619,319.715912 106.398331,323.299530 97.834389,326.902740 
	C99.850380,330.702209 101.567375,333.938141 103.383995,337.361816 
	C111.023994,334.179413 118.109474,330.700470 125.549622,328.338867 
	C129.615387,327.048401 129.176193,325.642517 127.038666,322.407806 
M67.016068,231.476654 
	C70.558098,230.527267 74.100128,229.577881 77.741249,228.601929 
	C75.995972,225.496948 74.205360,222.311295 72.287071,218.898514 
	C64.299049,220.924713 56.273495,222.960434 48.201447,225.007950 
	C48.765682,226.425034 49.229450,227.589783 49.720058,228.821945 
	C45.368622,230.012497 41.077374,231.186584 36.786121,232.360672 
	C36.926403,232.922089 37.066685,233.483490 37.206963,234.044891 
	C41.702900,233.096619 46.198833,232.148346 50.945267,231.147232 
	C52.242496,235.891510 55.401081,235.292206 58.948124,234.015091 
	C61.345005,233.152100 63.865871,232.633484 67.016068,231.476654 
M58.951668,196.987747 
	C51.717014,198.709808 44.482361,200.431870 37.184006,202.169083 
	C37.931568,203.810440 38.527287,205.118408 39.419476,207.077316 
	C34.535431,208.238800 29.960266,209.326843 25.385099,210.414871 
	C25.484617,210.980164 25.584133,211.545441 25.683651,212.110733 
	C30.639257,211.194687 35.594864,210.278641 40.634396,209.347076 
	C41.220699,210.403412 41.896214,211.620453 42.515675,212.736526 
	C50.392277,210.445404 58.120853,208.197357 66.615593,205.726440 
	C64.002350,202.351151 61.858139,199.581665 58.951668,196.987747 
M70.266029,258.964966 
	C76.890442,256.864868 83.514854,254.764755 90.316528,252.608475 
	C88.528069,249.054810 87.022598,246.063461 85.515984,243.069824 
	C79.058533,244.733032 72.675209,246.214996 66.417404,248.111160 
	C64.982063,248.546097 63.978512,250.405991 62.776245,251.610107 
	C63.071194,251.968445 63.366142,252.326782 63.661087,252.685120 
	C58.818871,253.723877 53.976654,254.762619 49.134438,255.801376 
	C49.234261,256.363251 49.334087,256.925110 49.433914,257.486969 
	C50.453575,257.383667 51.473721,257.187378 52.492817,257.192688 
	C57.867657,257.220703 63.889500,251.575470 68.461571,258.971832 
	C68.554611,259.122314 69.097054,258.994965 70.266029,258.964966 
M99.608315,306.036346 
	C104.777580,303.949097 109.946854,301.861816 115.531540,299.606812 
	C113.924889,297.000031 112.750900,294.698212 111.174179,292.716949 
	C110.464890,291.825684 108.663742,290.832092 107.847404,291.148285 
	C100.149635,294.130035 92.557602,297.384674 84.922882,300.565674 
	C89.291290,309.563171 89.291801,309.564911 98.109673,306.965576 
	C98.416008,306.875305 98.690453,306.676819 99.608315,306.036346 
M158.781219,417.028534 
	C163.806046,415.287170 168.830856,413.545776 173.762085,411.836823 
	C172.824234,409.567444 172.060684,407.719818 171.248734,405.755127 
	C164.356796,408.357941 157.789932,410.837982 151.077652,413.372955 
	C152.294662,415.535553 153.305756,417.332245 154.413651,419.300934 
	C155.862534,418.548340 156.972488,417.971771 158.781219,417.028534 
M97.971870,287.538879 
	C100.912270,286.238678 103.852669,284.938507 106.793060,283.638306 
	C106.554901,283.060303 106.316742,282.482330 106.078590,281.904327 
	C94.275772,286.754913 82.472954,291.605499 70.670135,296.456055 
	C70.898163,297.047760 71.126198,297.639435 71.354225,298.231110 
	C80.003189,294.809326 88.652153,291.387543 97.971870,287.538879 
M143.294785,399.965851 
	C150.078690,397.108612 156.862579,394.251404 163.720291,391.363068 
	C160.678467,389.954193 130.910294,401.101318 127.325417,405.694183 
	C133.121597,403.518311 137.807449,401.759216 143.294785,399.965851 
M81.958961,276.554871 
	C75.945847,279.003357 69.932732,281.451813 63.919617,283.900299 
	C64.173294,284.499084 64.426971,285.097900 64.680649,285.696686 
	C76.463829,280.841248 88.247002,275.985809 100.030182,271.130371 
	C99.806633,270.554321 99.583076,269.978241 99.359528,269.402191 
	C93.762039,271.614685 88.164551,273.827148 81.958961,276.554871 
M140.794418,348.613403 
	C139.310226,348.398468 137.609940,347.603821 136.377121,348.063324 
	C128.756180,350.903656 121.213646,353.961884 113.703224,357.087463 
	C110.771461,358.307556 107.990578,359.890198 105.140968,361.307709 
	C105.281998,361.695496 105.423027,362.083313 105.564056,362.471100 
	C106.454811,362.297363 107.401566,362.262360 108.227844,361.928894 
	C118.865623,357.635101 129.486221,353.298737 140.794418,348.613403 
M98.025070,316.466248 
	C108.608269,313.315186 118.552872,308.365784 118.445229,306.303192 
	C101.798882,311.777893 85.100395,319.437897 84.492180,321.982697 
	C88.834648,320.293091 93.114510,318.627838 98.025070,316.466248 
z"/>
<path fill="#FFFFFF" opacity="1.000000" stroke="none" 
	d="
M513.000000,182.531342 
	C498.041260,174.206421 483.090027,165.400116 468.117340,156.630295 
	C465.208160,154.926315 462.192413,153.405121 459.267975,151.726120 
	C456.164032,149.944061 454.152069,151.267059 453.049377,154.118256 
	C442.653229,181.000076 432.398712,207.936783 421.964752,234.803864 
	C413.440582,256.753143 404.671356,278.607178 396.113983,300.543701 
	C387.674805,322.177307 379.382416,343.868073 370.991455,365.520569 
	C366.940277,375.974396 362.810730,386.397827 358.709381,396.853577 
	C356.182251,395.571259 353.749146,394.336670 351.378845,393.133942 
	C365.355438,357.110321 379.139923,321.316498 393.129211,285.602905 
	C406.156342,252.345474 419.414093,219.178452 432.543427,185.960983 
	C436.725433,175.380447 441.381989,164.938507 444.721558,154.094437 
	C446.409729,148.612686 445.906403,142.369217 445.769806,136.484650 
	C445.742096,135.289902 442.996887,133.322433 441.360718,133.160095 
	C436.753601,132.702927 432.071655,133.000412 427.624298,133.000412 
	C397.299988,218.060135 367.078522,302.831421 336.859467,387.595978 
	C331.721130,386.067657 331.703308,386.061371 333.460663,381.075928 
	C344.644073,349.349670 355.798370,317.613098 367.036407,285.906219 
	C376.989624,257.824249 387.017883,229.768845 397.052521,201.715851 
	C405.469818,178.184418 413.829498,154.630890 422.514954,131.198456 
	C423.834442,127.638649 423.586945,124.892593 422.004761,121.742897 
	C416.096954,109.982224 413.461487,108.455421 400.257721,110.110474 
	C399.083313,110.257675 397.442413,111.768875 397.128754,112.943253 
	C391.323975,134.673172 385.713257,156.454788 380.011017,178.212250 
	C371.785095,209.599106 363.479218,240.965027 355.281311,272.359192 
	C348.136078,299.722107 341.093994,327.111938 334.004578,354.489441 
	C331.669556,363.506683 329.393677,372.539978 326.964447,381.531830 
	C325.703003,386.201172 323.190979,383.275391 321.073547,382.491058 
	C324.410736,369.585327 327.656586,356.832550 331.009918,344.108154 
	C337.190002,320.657318 343.478333,297.234894 349.636475,273.778320 
	C354.818665,254.039139 359.835602,234.256592 365.006439,214.514374 
	C371.191956,190.898163 377.472839,167.306946 383.693420,143.699890 
	C386.804718,131.892502 389.922363,120.086189 392.893555,108.243362 
	C393.221924,106.934357 393.075806,105.055344 392.339813,104.012154 
	C389.813080,100.430641 387.033295,97.007401 384.109192,93.739212 
	C383.261414,92.791679 381.441803,91.871162 380.350525,92.130135 
	C375.679138,93.238770 370.993713,94.507538 366.582489,96.359077 
	C365.270630,96.909714 364.404327,99.471329 364.070221,101.249825 
	C361.681793,113.963921 359.433228,126.705093 357.239563,139.454742 
	C355.097992,151.901413 353.136505,164.379120 350.980713,176.823242 
	C348.965912,188.453415 346.784607,200.054672 344.704498,211.673660 
	C342.452759,224.251434 340.204010,236.829880 338.009247,249.417664 
	C336.285126,259.306061 334.704407,269.219604 332.951752,279.102783 
	C331.032623,289.924622 328.994507,300.725342 326.998688,311.533539 
	C324.034454,327.585968 320.991913,343.624359 318.124603,359.694061 
	C316.842499,366.879272 315.904846,374.125946 314.804657,381.385712 
	C312.975830,381.186981 311.153137,380.988892 309.249542,380.782043 
	C311.849731,365.397217 314.323639,350.136841 317.032013,334.918182 
	C319.494904,321.078949 322.321320,307.304443 324.785706,293.465485 
	C327.000122,281.030334 328.830505,268.526917 331.030670,256.089081 
	C333.479584,242.244965 336.242340,228.456451 338.705933,214.614807 
	C340.918762,202.181717 342.825104,189.694153 345.023987,177.258423 
	C347.472321,163.411911 350.129852,149.602539 352.637634,135.766357 
	C354.800751,123.831902 357.337830,111.933884 358.691803,99.905190 
	C359.049774,96.724701 355.863434,92.992233 353.912170,89.749336 
	C352.081512,86.706810 349.464661,84.132233 347.679871,81.068542 
	C345.565765,77.439613 342.381042,77.333878 339.288910,78.385384 
	C333.692627,80.288422 328.313690,82.823006 322.807068,85.000511 
	C320.080872,86.078545 318.981293,87.658791 318.886261,90.851242 
	C318.488922,104.196503 317.727814,117.532593 316.977997,130.865173 
	C316.415100,140.875122 315.652557,150.873764 315.002991,160.878983 
	C313.990906,176.467758 313.004120,192.058182 311.997101,207.647278 
	C311.340057,217.818695 310.654724,227.988297 310.002533,238.160004 
	C308.992310,253.915558 308.007843,269.672760 306.997070,285.428284 
	C306.007599,300.851868 305.001404,316.274384 303.997925,331.697052 
	C303.336121,341.868164 302.707703,352.041718 301.982971,362.208374 
	C301.598053,367.607544 301.039642,372.994354 300.522308,378.805115 
	C299.072510,378.872498 297.334595,378.953247 295.022980,379.060638 
	C295.456909,371.331757 295.851990,363.845337 296.315704,356.363190 
	C296.426178,354.580353 296.886810,352.818115 296.980713,351.035553 
	C297.683472,337.700104 298.264069,324.357880 299.025726,311.025970 
	C299.569061,301.514771 300.381348,292.019226 300.989441,282.511353 
	C302.028992,266.257690 302.978394,249.998260 304.012909,233.744263 
	C304.628632,224.070251 305.367737,214.404129 305.992523,204.730652 
	C307.020813,188.809586 307.995270,172.885056 309.004242,156.962723 
	C309.659393,146.624512 310.263885,136.282410 311.020447,125.951508 
	C311.942657,113.357796 312.993164,100.773422 314.005402,88.186394 
	C314.252197,85.116997 312.713440,83.351006 310.851654,80.830055 
	C303.441528,70.796410 295.902679,74.722305 286.629120,77.623070 
	C276.045837,80.933517 274.212524,86.749100 274.805267,96.528763 
	C275.838196,113.571358 275.649139,130.687317 276.005402,147.771851 
	C276.313019,162.524170 276.671051,177.275421 276.998779,192.027328 
	C277.337585,207.278961 277.662445,222.530914 278.001282,237.782547 
	C278.328979,252.534454 278.668182,267.286102 278.999603,282.037933 
	C279.334778,296.956329 279.665314,311.874847 280.000488,326.793243 
	C280.331970,341.545044 280.635773,356.297638 281.035126,371.047638 
	C281.091492,373.130188 281.620819,375.199951 281.985291,377.637207 
	C280.104309,377.637207 278.256012,377.637207 276.437653,377.637207 
	C275.959534,369.617218 275.190918,361.574646 275.052612,353.521210 
	C274.581848,326.105804 274.383362,298.685791 273.966278,271.269287 
	C273.855865,264.013733 273.162994,256.767487 273.031494,249.511673 
	C272.613129,226.428528 272.376343,203.342148 271.984436,180.258453 
	C271.733948,165.505264 271.328979,150.754730 271.001251,136.002823 
	C270.662445,120.751190 270.246307,105.500511 270.040558,90.247032 
	C269.951721,83.660629 266.647156,80.290192 260.960236,77.091179 
	C254.214310,73.296448 249.334991,72.661720 242.886917,77.814308 
	C234.445801,84.559509 233.975082,84.947487 236.188629,95.690308 
	C237.988708,104.426392 238.773407,113.372070 239.998489,122.226158 
	C241.312714,131.724548 242.692307,141.214752 243.900742,150.726654 
	C245.030975,159.623047 245.869415,168.556824 247.025909,177.449493 
	C248.555679,189.212601 250.356049,200.940598 251.877243,212.704742 
	C253.048416,221.762039 253.885971,230.862183 255.022995,239.924316 
	C256.176392,249.116943 257.561188,258.280304 258.759491,267.467590 
	C259.896973,276.188385 260.869263,284.930756 262.014923,293.650421 
	C263.242767,302.995300 264.672028,312.314117 265.858459,321.663940 
	C267.008026,330.723297 267.905945,339.814331 269.015015,348.879120 
	C270.178223,358.386047 271.460938,367.878326 272.748077,377.814606 
	C271.205597,377.891266 269.462402,377.977875 267.193542,378.090607 
	C266.122467,369.505890 265.117462,360.992432 263.984619,352.496033 
	C262.782166,343.477600 261.402679,334.482758 260.203735,325.463867 
	C259.066376,316.908051 258.111755,308.327972 256.986908,299.770416 
	C255.737244,290.263428 254.300629,280.780579 253.103455,271.267334 
	C251.963028,262.204926 251.113007,253.106033 249.975784,244.043198 
	C248.822388,234.851379 247.432343,225.689499 246.222763,216.504395 
	C245.096008,207.948151 244.113098,199.372971 242.988617,190.816422 
	C241.739090,181.308395 240.330460,171.820999 239.122116,162.307968 
	C237.992233,153.412643 237.118912,144.484634 235.979248,135.590668 
	C234.429474,123.495956 232.733109,111.420021 231.101349,99.335793 
	C230.731216,96.594704 229.738907,93.757256 230.136780,91.131409 
	C230.900497,86.091072 228.319199,83.819183 224.400970,81.813087 
	C220.258942,79.692398 216.353745,77.113853 212.297638,74.819191 
	C209.146973,73.036774 207.172119,74.136719 204.531799,76.724281 
	C196.697342,84.402145 201.817261,92.599281 203.235291,100.302528 
	C206.324951,117.086586 210.343323,133.700150 214.006699,150.378006 
	C217.497528,166.270370 221.063919,182.146240 224.516464,198.046875 
	C228.722321,217.416885 232.822739,236.809769 237.009094,256.184052 
	C240.071625,270.357269 243.221634,284.511597 246.292252,298.683105 
	C250.216614,316.794861 254.089050,334.917816 258.007507,353.030853 
	C259.438080,359.643738 260.955322,366.237915 262.389893,372.849945 
	C262.726227,374.400177 262.887512,375.988403 263.118073,377.486053 
	C261.365295,378.057037 260.017639,378.496002 258.295959,379.056854 
	C255.525665,366.647827 252.729935,354.282257 250.009857,341.900085 
	C246.795349,327.267181 243.617783,312.626038 240.475937,297.977356 
	C236.622177,280.009430 232.835846,262.027008 228.994293,244.056442 
	C225.962204,229.872482 222.894730,215.696091 219.835571,201.517944 
	C215.893448,183.247482 211.986664,164.969269 207.984024,146.712067 
	C204.845322,132.395462 201.574234,118.107933 198.382553,103.802895 
	C197.225128,98.615395 196.350754,93.350708 194.892441,88.251305 
	C194.309921,86.214394 192.876358,83.978920 191.164368,82.804344 
	C188.143478,80.731773 184.604172,79.419022 181.296616,77.758850 
	C178.637543,76.424187 176.733841,76.327034 175.900543,79.963303 
	C175.371231,82.272987 174.196960,84.471901 173.089462,86.604996 
	C169.988983,92.576805 171.398193,98.503052 173.145569,104.409790 
	C181.744186,133.476181 190.413712,162.521637 198.996246,191.592773 
	C208.033768,222.205002 216.996231,252.839386 226.000671,283.461395 
	C234.326172,311.774506 242.662094,340.084564 250.998444,368.394440 
	C251.985382,371.746124 253.004150,375.088409 253.989548,378.372955 
	C249.615646,381.301575 248.086243,378.826843 247.016312,375.119598 
	C240.700348,353.235016 234.378098,331.352112 227.991562,309.488068 
	C220.032013,282.238861 211.996292,255.011871 204.015060,227.768967 
	C194.995682,196.982574 186.028397,166.180878 176.980453,135.402908 
	C173.408417,123.252007 169.706039,111.139061 165.978516,99.034859 
	C165.639481,97.933937 164.908386,96.546936 163.973953,96.101799 
	C157.602219,93.066452 151.127243,90.247818 144.427872,87.243706 
	C142.272827,93.704437 140.189133,100.132126 137.980453,106.516586 
	C136.159027,111.781609 139.957703,115.642120 141.565781,119.840805 
	C155.197693,155.433899 169.113831,190.919220 183.123734,226.366104 
	C195.488403,257.650391 208.160233,288.813171 220.547974,320.088440 
	C228.503738,340.174438 236.190613,360.366882 244.103928,380.784851 
	C242.073807,380.784851 240.298950,380.784851 238.429626,380.784851 
	C202.841583,290.385590 167.237595,199.945816 131.559891,109.318802 
	C126.118835,108.491707 120.362038,107.616615 112.639153,106.442665 
	C151.509842,199.740662 190.320953,291.513641 228.764938,383.451599 
	C222.086624,385.316864 215.521225,387.150604 208.635010,389.073914 
	C201.097809,370.622620 193.574677,352.142609 186.000717,333.683411 
	C179.371719,317.527222 172.645157,301.410980 166.036606,285.246460 
	C159.975143,270.420135 154.057022,255.535248 147.997238,240.708252 
	C140.723938,222.912003 133.336685,205.162338 126.057297,187.368561 
	C120.659599,174.174423 115.367958,160.936966 110.005013,147.728561 
	C106.330948,138.679688 102.587387,129.658966 98.931190,120.602921 
	C97.245262,116.427055 94.780708,115.549309 90.834213,117.977295 
	C82.484474,123.114281 73.758179,127.687134 65.735458,133.279190 
	C63.249649,135.011871 61.887741,139.137283 61.128323,142.425232 
	C58.479897,153.891724 56.431618,165.495453 53.919617,176.995560 
	C52.940754,181.476868 48.590836,180.492554 45.597473,180.891266 
	C35.888870,182.184402 26.064823,182.677505 16.404543,184.223969 
	C13.703698,184.656342 10.359751,187.138672 9.144647,189.589737 
	C6.112360,195.706360 4.133401,202.345154 1.365839,208.887177 
	C1.000000,139.700287 1.000000,70.400574 1.000000,1.050428 
	C171.550278,1.050428 342.100586,1.050428 513.000000,1.050428 
	C513.000000,61.353779 513.000000,121.708229 513.000000,182.531342 
z"/>
<path fill="#FFFFFF" opacity="1.000000" stroke="none" 
	d="
M1.000000,218.468658 
	C9.240972,233.765121 17.620842,249.459534 25.692095,265.311066 
	C39.636814,292.697815 53.368496,320.192932 67.230362,347.621948 
	C77.826530,368.588989 88.446594,389.544220 99.136642,410.463470 
	C103.238083,418.489502 107.626404,426.368591 111.767616,434.374847 
	C115.496819,441.584534 115.524933,441.634583 123.045219,439.026489 
	C138.029373,433.829803 153.108170,428.893341 167.996017,423.435211 
	C183.175385,417.870209 197.933426,411.044281 213.331192,406.224915 
	C224.029388,402.876495 235.430298,401.333801 246.640289,400.182922 
	C257.971039,399.019714 269.497559,398.557648 280.857635,399.204651 
	C293.822357,399.943024 306.793579,401.715057 319.584991,404.020081 
	C331.899261,406.239105 343.956940,409.856567 356.213165,412.454773 
	C357.785889,412.788177 360.536407,411.158752 361.620453,409.639008 
	C370.803009,396.766052 379.827484,383.776794 388.704407,370.690155 
	C406.620605,344.277374 424.363892,317.747253 442.276794,291.332245 
	C453.417725,274.903442 464.796600,258.636169 475.963287,242.224731 
	C487.566650,225.171524 499.038849,208.029114 510.590973,190.940948 
	C511.047699,190.265396 511.737152,189.747192 512.659058,189.077820 
	C513.000000,296.958221 513.000000,404.916412 513.000000,512.937317 
	C342.441193,512.937317 171.882370,512.937317 1.000000,512.937317 
	C1.000000,414.979340 1.000000,316.958344 1.000000,218.468658 
z"/>
<path fill="#FFFFFF" opacity="1.000000" stroke="none" 
	d="
M146.040649,384.997223 
	C142.017929,386.707153 138.389374,388.380096 134.771698,390.047974 
	C131.520859,384.304901 131.531967,384.331390 123.911217,387.528748 
	C122.568916,388.091919 121.090088,388.329620 119.674309,388.717651 
	C119.540970,388.308289 119.407631,387.898956 119.274292,387.489624 
	C121.742920,386.339478 124.107719,384.663177 126.702286,384.151184 
	C131.746567,383.155792 130.223511,381.055481 127.818787,377.962311 
	C135.532257,374.505768 143.213821,371.063568 151.252838,367.461151 
	C153.442871,371.957611 155.439529,376.057068 157.427475,380.138611 
	C153.432220,381.890991 149.933517,383.425598 146.040649,384.997223 
z"/>
<path fill="#FFFFFF" opacity="1.000000" stroke="none" 
	d="
M127.275574,322.708435 
	C129.176193,325.642517 129.615387,327.048401 125.549622,328.338867 
	C118.109474,330.700470 111.023994,334.179413 103.383995,337.361816 
	C101.567375,333.938141 99.850380,330.702209 97.834389,326.902740 
	C106.398331,323.299530 114.915619,319.715912 123.865738,315.950226 
	C124.940819,318.138245 125.989746,320.273010 127.275574,322.708435 
z"/>
<path fill="#FFFFFF" opacity="1.000000" stroke="none" 
	d="
M66.673676,231.718750 
	C63.865871,232.633484 61.345005,233.152100 58.948124,234.015091 
	C55.401081,235.292206 52.242496,235.891510 50.945267,231.147232 
	C46.198833,232.148346 41.702900,233.096619 37.206963,234.044891 
	C37.066685,233.483490 36.926403,232.922089 36.786121,232.360672 
	C41.077374,231.186584 45.368622,230.012497 49.720058,228.821945 
	C49.229450,227.589783 48.765682,226.425034 48.201447,225.007950 
	C56.273495,222.960434 64.299049,220.924713 72.287071,218.898514 
	C74.205360,222.311295 75.995972,225.496948 77.741249,228.601929 
	C74.100128,229.577881 70.558098,230.527267 66.673676,231.718750 
z"/>
<path fill="#FFFFFF" opacity="1.000000" stroke="none" 
	d="
M59.332794,196.899963 
	C61.858139,199.581665 64.002350,202.351151 66.615593,205.726440 
	C58.120853,208.197357 50.392277,210.445404 42.515675,212.736526 
	C41.896214,211.620453 41.220699,210.403412 40.634396,209.347076 
	C35.594864,210.278641 30.639257,211.194687 25.683651,212.110733 
	C25.584133,211.545441 25.484617,210.980164 25.385099,210.414871 
	C29.960266,209.326843 34.535431,208.238800 39.419476,207.077316 
	C38.527287,205.118408 37.931568,203.810440 37.184006,202.169083 
	C44.482361,200.431870 51.717014,198.709808 59.332794,196.899963 
z"/>
<path fill="#FFFFFF" opacity="1.000000" stroke="none" 
	d="
M69.847931,258.981110 
	C69.097054,258.994965 68.554611,259.122314 68.461571,258.971832 
	C63.889500,251.575470 57.867657,257.220703 52.492817,257.192688 
	C51.473721,257.187378 50.453575,257.383667 49.433914,257.486969 
	C49.334087,256.925110 49.234261,256.363251 49.134438,255.801376 
	C53.976654,254.762619 58.818871,253.723877 63.661087,252.685120 
	C63.366142,252.326782 63.071194,251.968445 62.776245,251.610107 
	C63.978512,250.405991 64.982063,248.546097 66.417404,248.111160 
	C72.675209,246.214996 79.058533,244.733032 85.515984,243.069824 
	C87.022598,246.063461 88.528069,249.054810 90.316528,252.608475 
	C83.514854,254.764755 76.890442,256.864868 69.847931,258.981110 
z"/>
<path fill="#FFFFFF" opacity="1.000000" stroke="none" 
	d="
M99.294037,306.282532 
	C98.690453,306.676819 98.416008,306.875305 98.109673,306.965576 
	C89.291801,309.564911 89.291290,309.563171 84.922882,300.565674 
	C92.557602,297.384674 100.149635,294.130035 107.847404,291.148285 
	C108.663742,290.832092 110.464890,291.825684 111.174179,292.716949 
	C112.750900,294.698212 113.924889,297.000031 115.531540,299.606812 
	C109.946854,301.861816 104.777580,303.949097 99.294037,306.282532 
z"/>
<path fill="#FFFFFF" opacity="1.000000" stroke="none" 
	d="
M158.431824,417.211884 
	C156.972488,417.971771 155.862534,418.548340 154.413651,419.300934 
	C153.305756,417.332245 152.294662,415.535553 151.077652,413.372955 
	C157.789932,410.837982 164.356796,408.357941 171.248734,405.755127 
	C172.060684,407.719818 172.824234,409.567444 173.762085,411.836823 
	C168.830856,413.545776 163.806046,415.287170 158.431824,417.211884 
z"/>
<path fill="#FFFFFF" opacity="1.000000" stroke="none" 
	d="
M97.636490,287.752319 
	C88.652153,291.387543 80.003189,294.809326 71.354225,298.231110 
	C71.126198,297.639435 70.898163,297.047760 70.670135,296.456055 
	C82.472954,291.605499 94.275772,286.754913 106.078590,281.904327 
	C106.316742,282.482330 106.554901,283.060303 106.793060,283.638306 
	C103.852669,284.938507 100.912270,286.238678 97.636490,287.752319 
z"/>
<path fill="#FFFFFF" opacity="1.000000" stroke="none" 
	d="
M142.894043,399.983002 
	C137.807449,401.759216 133.121597,403.518311 127.325417,405.694183 
	C130.910294,401.101318 160.678467,389.954193 163.720291,391.363068 
	C156.862579,394.251404 150.078690,397.108612 142.894043,399.983002 
z"/>
<path fill="#FFFFFF" opacity="1.000000" stroke="none" 
	d="
M82.263016,276.297241 
	C88.164551,273.827148 93.762039,271.614685 99.359528,269.402191 
	C99.583076,269.978241 99.806633,270.554321 100.030182,271.130371 
	C88.247002,275.985809 76.463829,280.841248 64.680649,285.696686 
	C64.426971,285.097900 64.173294,284.499084 63.919617,283.900299 
	C69.932732,281.451813 75.945847,279.003357 82.263016,276.297241 
z"/>
<path fill="#FFFFFF" opacity="1.000000" stroke="none" 
	d="
M140.452789,348.793304 
	C129.486221,353.298737 118.865623,357.635101 108.227844,361.928894 
	C107.401566,362.262360 106.454811,362.297363 105.564056,362.471100 
	C105.423027,362.083313 105.281998,361.695496 105.140968,361.307709 
	C107.990578,359.890198 110.771461,358.307556 113.703224,357.087463 
	C121.213646,353.961884 128.756180,350.903656 136.377121,348.063324 
	C137.609940,347.603821 139.310226,348.398468 140.452789,348.793304 
z"/>
<path fill="#FFFFFF" opacity="1.000000" stroke="none" 
	d="
M97.709717,316.714417 
	C93.114510,318.627838 88.834648,320.293091 84.492180,321.982697 
	C85.100395,319.437897 101.798882,311.777893 118.445229,306.303192 
	C118.552872,308.365784 108.608269,313.315186 97.709717,316.714417 
z"/>
</svg>