<?xml version="1.0" standalone="no"?>
<!DOCTYPE svg PUBLIC "-//W3C//DTD SVG 20010904//EN"
 "http://www.w3.org/TR/2001/REC-SVG-20010904/DTD/svg10.dtd">
<svg version="1.0" xmlns="http://www.w3.org/2000/svg"
 width="512.000000pt" height="512.000000pt" viewBox="0 0 512.000000 512.000000"
 preserveAspectRatio="xMidYMid meet">

<g transform="translate(0.000000,512.000000) scale(0.100000,-0.100000)"
fill="#000000" stroke="none">
<path d="M1925 5098 c-61 -16 -1651 -596 -1698 -619 -57 -30 -139 -110 -170
-167 -57 -104 -70 -213 -39 -322 27 -92 1327 -3662 1362 -3738 77 -166 277
-269 453 -233 33 7 232 75 442 151 l380 138 645 -114 c682 -120 753 -129 846
-97 138 46 246 162 282 303 18 67 682 3845 689 3915 6 69 -13 158 -51 232 -49
98 -167 186 -281 212 -27 6 -421 76 -874 156 -557 98 -848 145 -897 145 -123
0 -239 -57 -320 -157 -54 -66 -78 -132 -108 -299 -14 -75 -27 -138 -29 -140
-1 -2 -34 81 -71 184 -86 233 -105 273 -170 336 -104 103 -258 148 -391 114z
m176 -173 c58 -21 104 -58 133 -108 14 -23 169 -437 344 -920 l320 -878 -27
-10 c-136 -52 -2011 -733 -2027 -737 -14 -2 -24 3 -28 15 -4 10 -150 407 -323
883 -300 820 -316 869 -317 935 0 53 5 80 21 110 28 53 78 100 133 124 41 17
1560 572 1620 591 41 13 105 11 151 -5z m1819 -185 c579 -102 861 -155 887
-169 77 -39 130 -115 139 -199 4 -34 -41 -307 -159 -974 -90 -511 -165 -930
-168 -932 -4 -3 -1421 244 -1428 250 -10 9 -511 1402 -511 1423 0 24 56 350
86 506 9 44 24 96 34 115 40 77 128 129 218 130 30 0 436 -67 902 -150z m-634
-2788 c173 -474 317 -882 320 -906 15 -106 -52 -220 -153 -264 -115 -49 -1630
-595 -1664 -599 -90 -12 -197 40 -243 119 -23 41 -656 1768 -656 1792 0 6 465
181 1033 388 995 362 1032 375 1040 354 5 -11 150 -409 323 -884z m659 457
c352 -62 642 -113 643 -115 8 -5 -319 -1841 -335 -1883 -35 -96 -130 -163
-231 -162 -43 0 -987 159 -1036 174 -5 2 107 45 250 97 142 51 285 106 316
123 162 84 259 287 218 458 -7 30 -122 353 -255 719 -133 366 -246 676 -250
689 -6 21 -5 23 16 18 13 -3 312 -56 664 -118z"/>
<path d="M1815 4696 c-95 -45 -147 -125 -147 -226 0 -142 108 -253 247 -254
138 -1 243 97 253 237 14 190 -181 324 -353 243z m160 -171 c47 -46 25 -119
-42 -139 -32 -10 -79 18 -92 54 -28 82 73 147 134 85z"/>
<path d="M560 4240 c-40 -13 -67 -32 -101 -68 -55 -60 -74 -118 -66 -198 22
-217 291 -300 439 -136 122 136 59 355 -118 408 -61 18 -87 17 -154 -6z m114
-160 c14 -5 32 -23 41 -39 42 -83 -65 -162 -130 -96 -44 43 -26 116 35 138 22
8 26 8 54 -3z"/>
<path d="M2313 3519 c-117 -22 -198 -108 -210 -223 -11 -105 41 -198 137 -249
49 -26 62 -28 126 -25 88 6 149 38 194 103 89 130 47 300 -90 367 -66 31 -101
38 -157 27z m110 -200 c9 -12 17 -30 17 -41 0 -27 -26 -74 -45 -82 -83 -32
-158 52 -109 122 32 45 100 46 137 1z"/>
<path d="M975 3036 c-170 -79 -202 -301 -62 -422 173 -148 435 -11 414 217
-15 174 -196 278 -352 205z m160 -171 c59 -58 5 -158 -75 -140 -66 15 -88 97
-36 141 36 31 80 31 111 -1z"/>
<path d="M3105 4691 c-71 -18 -133 -67 -167 -131 -32 -62 -32 -176 0 -237 60
-114 210 -164 327 -109 94 43 145 125 145 233 0 104 -55 190 -147 228 -44 18
-119 26 -158 16z m94 -176 c33 -16 41 -33 41 -80 0 -67 -87 -99 -135 -50 -42
41 -32 105 20 133 27 15 41 15 74 -3z"/>
<path d="M4430 4451 c-77 -24 -152 -94 -170 -160 -36 -129 15 -253 127 -307
215 -106 440 114 339 331 -51 110 -183 170 -296 136z m125 -186 c37 -36 34
-86 -6 -119 -35 -30 -49 -32 -88 -11 -33 16 -41 33 -41 80 0 67 87 99 135 50z"/>
<path d="M3631 3990 c-51 -12 -112 -60 -146 -114 -62 -101 -40 -246 48 -321
94 -81 216 -85 318 -10 96 69 127 204 73 313 -54 108 -170 161 -293 132z m124
-185 c52 -51 16 -145 -55 -145 -73 0 -111 104 -54 149 36 28 79 27 109 -4z"/>
<path d="M4200 3195 c-180 -57 -234 -296 -96 -423 59 -54 121 -76 196 -69 213
19 306 274 157 427 -63 65 -172 93 -257 65z m131 -184 c75 -76 -20 -187 -104
-121 -48 38 -41 110 13 137 38 19 59 16 91 -16z"/>
<path d="M2645 2561 c-72 -18 -138 -70 -171 -138 -14 -27 -19 -59 -19 -113 0
-64 4 -82 28 -122 88 -150 291 -171 408 -41 45 50 63 101 63 174 -2 157 -156
277 -309 240z m119 -191 c31 -30 27 -87 -8 -116 -36 -32 -77 -31 -110 2 -58
58 -11 153 69 139 16 -3 39 -14 49 -25z"/>
<path d="M1312 2074 c-108 -54 -162 -179 -128 -296 31 -108 126 -178 242 -178
71 0 119 17 169 62 47 40 75 97 82 162 20 197 -187 339 -365 250z m173 -169
c51 -50 17 -135 -54 -135 -71 0 -108 57 -77 118 18 34 28 40 74 41 22 1 41 -7
57 -24z"/>
<path d="M2216 1684 c-107 -34 -188 -162 -171 -272 20 -136 140 -232 275 -219
213 19 304 268 156 425 -65 70 -167 96 -260 66z m142 -190 c30 -34 28 -75 -4
-108 -32 -31 -71 -34 -107 -6 -31 25 -41 63 -25 98 27 56 93 64 136 16z"/>
<path d="M3035 1346 c-133 -62 -187 -214 -122 -342 100 -196 377 -183 463 21
7 19 14 60 14 92 -1 185 -189 307 -355 229z m160 -171 c64 -63 -4 -168 -87
-136 -15 6 -34 24 -43 40 -42 83 65 162 130 96z"/>
<path d="M1792 896 c-114 -37 -182 -131 -182 -250 1 -223 281 -329 437 -165
112 118 78 321 -66 394 -62 31 -133 39 -189 21z m107 -171 c31 -15 54 -65 44
-93 -22 -63 -94 -82 -138 -37 -44 43 -26 116 35 138 24 9 29 8 59 -8z"/>
<path d="M3992 2201 c-60 -21 -114 -67 -145 -126 -16 -30 -21 -58 -21 -110 -1
-80 19 -129 71 -181 56 -56 89 -69 178 -69 70 0 86 4 127 28 49 29 97 88 116
146 43 124 -40 277 -169 315 -67 20 -91 20 -157 -3z m146 -187 c47 -53 9 -133
-64 -134 -58 0 -101 69 -73 119 31 55 95 62 137 15z"/>
</g>
</svg>
