<?xml version="1.0" encoding="utf-8"?>
<!-- Generator: Adobe Illustrator 26.0.0, SVG Export Plug-In . SVG Version: 6.00 Build 0)  -->
<svg version="1.1" id="Layer_1" xmlns="http://www.w3.org/2000/svg" xmlns:xlink="http://www.w3.org/1999/xlink" x="0px" y="0px"
	 viewBox="0 0 1920 1600" style="enable-background:new 0 0 1920 1600;" xml:space="preserve">
<style type="text/css">
	.st0{fill:#E0DFE7;}
	.st1{fill:#020A4A;}
	.st2{fill:#4182F9;}
	.st3{fill:#F1F0F8;}
	.st4{fill:#0017B2;}
	.st5{fill:#1E1E1E;}
	.st6{fill:#EFEA32;}
	.st7{fill:#02094B;}
	.st8{fill:#3F81FB;}
</style>
<path class="st0" d="M1321,2.5C1081.3,3,841.6,3,601.5,3c-0.1-0.7,0.1-1.8,0.6-1.9c1.1-0.3,2.3-0.1,3.5-0.1c237,0,474,0,711,0
	C1318,1,1319.5,1.7,1321,2.5z"/>
<path class="st1" d="M930.9,972.1c25.3,52.8,33,112.9,30.4,147.9c-170.1,6.2-325.2-140.9-319.4-330.4c61.9-0.9,119,15,171.1,48.2
	C865.2,871,904.2,915.9,930.9,972.1z"/>
<path class="st1" d="M1028.2,1117.1c-16.8,1.5-33.2,2.8-49.6,4.2C970,938,1122.2,782.2,1292.4,790.1
	C1299,933.3,1199.3,1090.2,1028.2,1117.1z"/>
<path class="st1" d="M726.4,758.3c-28,7.1-55.9,10.3-84.3,9.7C634.8,601.6,776.4,449.8,962,453.3c0,1.9,0,3.8,0,5.7
	c-0.5,86.4-31.6,160-93.3,220.3C828.6,718.4,781,744.4,726.4,758.3z"/>
<path class="st1" d="M1277.7,664.3c11,33.7,15.8,68,15.1,103c-160.7,8.8-321.6-130.6-314.4-313.7
	C1089.9,448.9,1227.6,516.8,1277.7,664.3z"/>
<path class="st2" d="M946.2,853.8c-17-23.7-33.7-47.1-50.6-70.4c-2.4-3.3-2.6-5.6,0-9.1c19.6-25.4,38.9-51,58.4-76.6
	c1-1.3,2.2-2.5,3.7-4.2c6.3,7.9,12.5,15.5,18.5,23.1c15.6,19.5,31.1,39,46.7,58.5c1.9,2.4,2.6,4.1,0.5,6.9
	c-21.1,27.8-42.1,55.8-63.1,83.7c-0.8,1-1.8,1.9-3.1,3.4C953.6,864,950,859,946.2,853.8z"/>
<rect x="1061" y="56.6" class="st3" width="220.5" height="220.5"/>
<rect x="49.5" y="56.6" class="st4" width="220.5" height="220.5"/>
<rect x="49.5" y="297.6" class="st5" width="220.5" height="220.5"/>
<rect x="299.6" y="56.6" class="st6" width="220.5" height="220.5"/>
<rect x="549.7" y="56.6" class="st7" width="220.5" height="220.5"/>
<rect x="799.8" y="56.6" class="st8" width="220.5" height="220.5"/>
</svg>
