<svg id="Camada_1" data-name="Camada 1" xmlns="http://www.w3.org/2000/svg" viewBox="0 0 1054.21 1080.26"><defs><style>.cls-1{fill:#fffff1;}.cls-2{fill:#020a4a;}.cls-3{fill:#4182f9;}</style></defs><path class="cls-1" d="M1051.27,533.4c.27,20.6.94,72.28-5.69,118.42-14.72,102.54-73.13,230.9-189.35,320.73-129.67,100.21-268.42,103.84-325.48,105.33-33.62.88-94,1.95-167.92-20.53C232.77,1017.82,153.06,933.27,121.27,895,6,756,1.49,599.65-.31,536.81-1.67,489-3.13,408.59,35.34,314.15c12.21-30,47-106.9,123.75-178.21C279.52,24.07,421.85,1.63,476,.13c5.57-.15,27.2-.55,54.72.1C585.47,1.52,634,6.28,654.52,9.31c70.9,10.48,162.2,52.82,236.37,120.35,25.24,23,102,94.6,137.94,211.6C1049.67,409.13,1050.48,471.82,1051.27,533.4Z" transform="translate(0.82 0.13)"/><path class="cls-2" d="M468.22,838.77c40.93,85.29,53.29,182.46,49.17,239.11C242.51,1087.94-8.26,850.16,1.07,543.85c100-1.45,192.29,24.22,276.64,77.9S425.06,748,468.22,838.77Z" transform="translate(0.82 0.13)"/><path class="cls-2" d="M625.45,1073.27c-27.15,2.36-53.6,4.61-80.12,6.86C531.4,783.8,777.39,532,1052.61,544.83,1063.18,776.15,902.08,1029.74,625.45,1073.27Z" transform="translate(0.82 0.13)"/><path class="cls-2" d="M137.65,493.25A507.46,507.46,0,0,1,1.34,508.89c-11.88-269,217-514.28,517-508.66,0,3.05,0,6.15,0,9.25Q517.29,219,367.55,365.58C302.89,428.77,226,470.84,137.65,493.25Z" transform="translate(0.82 0.13)"/><path class="cls-2" d="M1028.83,341.26a501,501,0,0,1,24.45,166.49C793.49,522,533.41,296.64,545,.7,725.21-6.85,947.86,102.92,1028.83,341.26Z" transform="translate(0.82 0.13)"/><path class="cls-3" d="M493,647.61c-27.46-38.25-54.49-76.09-81.8-113.73-3.92-5.4-4.26-9,.07-14.66,31.67-41.08,62.93-82.48,94.36-123.76,1.6-2.1,3.53-4,6-6.74,10.24,12.77,20.13,25,30,37.36q37.77,47.25,75.54,94.5c3.08,3.82,4.2,6.64.76,11.18Q566.73,599.26,516,667.05c-1.26,1.68-2.84,3.11-5,5.42C504.87,664,499.09,656.06,493,647.61Z" transform="translate(0.82 0.13)"/></svg>