<svg id="Camada_1" data-name="Camada 1" xmlns="http://www.w3.org/2000/svg" viewBox="0 0 1052.57 1080"><defs><style>.cls-1{fill:#020a4a;}.cls-2{fill:#4182f9;}</style></defs><path class="cls-1" d="M481.12,838.64c40.92,85.29,53.28,182.45,49.16,239.11C255.41,1087.81,4.64,850,14,543.72c100-1.46,192.29,24.22,276.63,77.9S438,747.9,481.12,838.64Z" transform="translate(-13.72 0)"/><path class="cls-1" d="M638.35,1073.14c-27.16,2.36-53.6,4.61-80.12,6.86-13.93-296.33,232-548.16,507.28-535.3C1076.07,776,915,1029.61,638.35,1073.14Z" transform="translate(-13.72 0)"/><path class="cls-1" d="M150.54,493.12A507.37,507.37,0,0,1,14.23,508.76C2.36,239.78,231.28-5.52,531.27.09c0,3.06,0,6.16,0,9.25q-1.1,209.54-150.82,356.11C315.78,428.64,238.88,470.71,150.54,493.12Z" transform="translate(-13.72 0)"/><path class="cls-1" d="M1041.72,341.13a501,501,0,0,1,24.46,166.49C806.39,521.82,546.31,296.5,557.93.57,738.11-7,960.76,102.79,1041.72,341.13Z" transform="translate(-13.72 0)"/><path class="cls-2" d="M505.87,647.48c-27.45-38.25-54.48-76.1-81.79-113.73-3.92-5.4-4.26-9,.06-14.66C455.81,478,487.08,436.6,518.5,395.33c1.61-2.1,3.54-4,6-6.74,10.25,12.77,20.13,25,30,37.35q37.75,47.26,75.54,94.5c3.08,3.83,4.19,6.65.75,11.19q-51.15,67.5-101.93,135.29c-1.27,1.68-2.85,3.11-5,5.42Z" transform="translate(-13.72 0)"/></svg>