<svg width="150" height="40" viewBox="0 0 300 80" fill="none" xmlns="http://www.w3.org/2000/svg">
<g id="Group 9">
<g id="Rectangle 21" filter="url(#filter0_d_54_5)">
<rect x="4" width="292" height="72" rx="20" fill="#3F81FB"/>
</g>
<g id="Cadastre-se" filter="url(#filter1_i_54_5)">
<path d="M61.127 43.6406C61.127 44.4844 60.4531 45.4395 59.1055 46.5059C57.7578 47.5723 55.2617 48.1055 51.6172 48.1055C47.9727 48.1055 44.9727 46.9746 42.6172 44.7129C40.2617 42.4395 39.084 39.4688 39.084 35.8008C39.084 32.1328 40.2559 29.1621 42.5996 26.8887C44.9434 24.6035 47.9609 23.4609 51.6523 23.4609C55.3555 23.4609 57.8574 23.9941 59.1582 25.0605C60.4707 26.127 61.127 27.0879 61.127 27.9434C61.127 28.7871 60.8457 29.543 60.2832 30.2109C59.7207 30.8672 59.0996 31.1953 58.4199 31.1953C57.752 31.1953 56.6855 30.9375 55.2207 30.4219C53.7676 29.9062 52.6777 29.6484 51.9512 29.6484C48.0137 29.6484 46.0449 31.6934 46.0449 35.7832C46.0449 39.873 48.0137 41.918 51.9512 41.918C52.6777 41.918 53.7676 41.6602 55.2207 41.1445C56.6855 40.6289 57.752 40.3711 58.4199 40.3711C59.0996 40.3711 59.7207 40.7051 60.2832 41.373C60.8457 42.0293 61.127 42.7852 61.127 43.6406ZM75.1719 38.0859L73.6602 33.9727L72.1484 38.0859H75.1719ZM70.0742 43.7109L69.4062 45.5039C68.8086 47.0977 67.8242 47.8945 66.4531 47.8945C65.0938 47.8945 64.1152 47.4785 63.5176 46.6465C62.9316 45.8027 62.6387 45.0469 62.6387 44.3789C62.6387 43.7109 62.7852 43.0547 63.0781 42.4102L70.3203 26.5547C71.0469 24.9609 72.1543 24.1641 73.6426 24.1641C75.1309 24.1641 76.2383 24.9609 76.9648 26.5547L84.2422 42.4102C84.5469 43.0664 84.6992 43.7285 84.6992 44.3965C84.6992 45.0645 84.4121 45.8145 83.8379 46.6465C83.2637 47.4785 82.2793 47.8945 80.8848 47.8945C79.502 47.8945 78.5117 47.0977 77.9141 45.5039L77.2461 43.7109H70.0742ZM96.7578 47.8945H89.6914C87.3711 47.8945 86.2109 46.875 86.2109 44.8359V27.2227C86.2109 25.1836 87.3711 24.1641 89.6914 24.1641H96.7578C100.637 24.6094 103.309 26.7539 104.773 30.5977C105.5 32.3906 105.863 34.207 105.863 36.0469C105.863 37.875 105.5 39.6797 104.773 41.4609C103.309 45.3047 100.637 47.4492 96.7578 47.8945ZM99.4121 35.8184C99.4004 31.3535 97.7422 29.0625 94.4375 28.9453H93.1719V43.0078L94.4375 43.043C97.7656 42.6914 99.4238 40.2832 99.4121 35.8184ZM119.645 38.0859L118.133 33.9727L116.621 38.0859H119.645ZM114.547 43.7109L113.879 45.5039C113.281 47.0977 112.297 47.8945 110.926 47.8945C109.566 47.8945 108.588 47.4785 107.99 46.6465C107.404 45.8027 107.111 45.0469 107.111 44.3789C107.111 43.7109 107.258 43.0547 107.551 42.4102L114.793 26.5547C115.52 24.9609 116.627 24.1641 118.115 24.1641C119.604 24.1641 120.711 24.9609 121.438 26.5547L128.715 42.4102C129.02 43.0664 129.172 43.7285 129.172 44.3965C129.172 45.0645 128.885 45.8145 128.311 46.6465C127.736 47.4785 126.752 47.8945 125.357 47.8945C123.975 47.8945 122.984 47.0977 122.387 45.5039L121.719 43.7109H114.547ZM140.158 47.9648C137.908 47.9648 135.723 47.6074 133.602 46.8926C131.48 46.1777 130.42 44.9004 130.42 43.0605C130.42 41.2207 131.252 40.3008 132.916 40.3008C133.162 40.3008 134.141 40.623 135.852 41.2676C137.562 41.9121 139.039 42.2344 140.281 42.2344C141.535 42.2344 142.162 41.707 142.162 40.6523C142.162 39.9609 141.734 39.3867 140.879 38.9297C140.023 38.4609 138.828 37.9746 137.293 37.4707C135.77 36.9668 134.814 36.5859 134.428 36.3281C132.646 35.1445 131.756 33.4219 131.756 31.1602C131.756 28.8867 132.5 27.0469 133.988 25.6406C135.441 24.2578 137.158 23.5664 139.139 23.5664C141.119 23.5664 142.842 23.7832 144.307 24.2168C147.049 25.084 148.15 26.3672 147.611 28.0664C147.084 29.7539 146.111 30.5391 144.693 30.4219C144.564 30.4219 143.861 30.1816 142.584 29.7012C141.307 29.2207 140.17 28.9805 139.174 28.9805C138.189 28.9805 137.697 29.4668 137.697 30.4395C137.697 31.0605 138.113 31.5996 138.945 32.0566C139.789 32.502 140.973 32.9941 142.496 33.5332C144.02 34.0605 144.986 34.4648 145.396 34.7461C147.201 35.9648 148.104 37.7812 148.104 40.1953C148.104 42.5977 147.33 44.502 145.783 45.9082C144.295 47.2793 142.42 47.9648 140.158 47.9648ZM162.623 29.7539V44.8711C162.623 46.9102 161.463 47.9297 159.143 47.9297C156.822 47.9297 155.662 46.9102 155.662 44.8711V29.7539H152.146C150.271 29.7539 149.334 28.8223 149.334 26.959C149.334 25.0957 150.271 24.1641 152.146 24.1641H166.174C168.049 24.1641 168.986 25.0957 168.986 26.959C168.986 28.8223 168.049 29.7539 166.174 29.7539H162.623ZM185.07 37.8047L188.551 42.375C189.066 43.0547 189.324 43.7812 189.324 44.5547C189.324 45.3281 188.855 46.0781 187.918 46.8047C186.98 47.5195 186.119 47.877 185.334 47.877C184.549 47.877 183.805 47.4023 183.102 46.4531L177.441 38.8945V44.8359C177.441 46.875 176.281 47.8945 173.961 47.8945C171.641 47.8945 170.48 46.875 170.48 44.8359V27.2227C170.48 25.1836 171.641 24.1641 173.961 24.1641H181.836C183.781 24.1641 185.398 24.9141 186.688 26.4141C187.977 27.9023 188.621 29.502 188.621 31.2129C188.621 34.2715 187.438 36.4688 185.07 37.8047ZM177.441 28.9453V34.3594H179.445C181.414 34.3594 182.398 33.457 182.398 31.6523C182.398 29.8477 181.414 28.9453 179.445 28.9453H177.441ZM202.754 47.8945H194.316C191.996 47.8945 190.836 46.875 190.836 44.8359V27.2227C190.836 25.1836 191.996 24.1641 194.316 24.1641H202.754C204.559 24.1641 205.461 25.0957 205.461 26.959C205.461 28.8223 204.559 29.7539 202.754 29.7539H197.797V33.1641H202.051C203.855 33.1641 204.758 34.1016 204.758 35.9766C204.758 37.8516 203.855 38.7891 202.051 38.7891H197.797V42.3047H202.754C204.559 42.3047 205.461 43.2363 205.461 45.0996C205.461 46.9629 204.559 47.8945 202.754 47.8945ZM210.031 38.9473C208.156 38.9473 207.219 38.0156 207.219 36.1523C207.219 34.2891 208.156 33.3574 210.031 33.3574H220.543C222.418 33.3574 223.355 34.2891 223.355 36.1523C223.355 38.0156 222.418 38.9473 220.543 38.9473H210.031ZM234.588 47.9648C232.338 47.9648 230.152 47.6074 228.031 46.8926C225.91 46.1777 224.85 44.9004 224.85 43.0605C224.85 41.2207 225.682 40.3008 227.346 40.3008C227.592 40.3008 228.57 40.623 230.281 41.2676C231.992 41.9121 233.469 42.2344 234.711 42.2344C235.965 42.2344 236.592 41.707 236.592 40.6523C236.592 39.9609 236.164 39.3867 235.309 38.9297C234.453 38.4609 233.258 37.9746 231.723 37.4707C230.199 36.9668 229.244 36.5859 228.857 36.3281C227.076 35.1445 226.186 33.4219 226.186 31.1602C226.186 28.8867 226.93 27.0469 228.418 25.6406C229.871 24.2578 231.588 23.5664 233.568 23.5664C235.549 23.5664 237.271 23.7832 238.736 24.2168C241.479 25.084 242.58 26.3672 242.041 28.0664C241.514 29.7539 240.541 30.5391 239.123 30.4219C238.994 30.4219 238.291 30.1816 237.014 29.7012C235.736 29.2207 234.6 28.9805 233.604 28.9805C232.619 28.9805 232.127 29.4668 232.127 30.4395C232.127 31.0605 232.543 31.5996 233.375 32.0566C234.219 32.502 235.402 32.9941 236.926 33.5332C238.449 34.0605 239.416 34.4648 239.826 34.7461C241.631 35.9648 242.533 37.7812 242.533 40.1953C242.533 42.5977 241.76 44.502 240.213 45.9082C238.725 47.2793 236.85 47.9648 234.588 47.9648ZM255.945 47.8945H247.508C245.188 47.8945 244.027 46.875 244.027 44.8359V27.2227C244.027 25.1836 245.188 24.1641 247.508 24.1641H255.945C257.75 24.1641 258.652 25.0957 258.652 26.959C258.652 28.8223 257.75 29.7539 255.945 29.7539H250.988V33.1641H255.242C257.047 33.1641 257.949 34.1016 257.949 35.9766C257.949 37.8516 257.047 38.7891 255.242 38.7891H250.988V42.3047H255.945C257.75 42.3047 258.652 43.2363 258.652 45.0996C258.652 46.9629 257.75 47.8945 255.945 47.8945Z" fill="#F1F0F8"/>
</g>
</g>
<defs>
<filter id="filter0_d_54_5" x="0" y="0" width="300" height="80" filterUnits="userSpaceOnUse" color-interpolation-filters="sRGB">
<feFlood flood-opacity="0" result="BackgroundImageFix"/>
<feColorMatrix in="SourceAlpha" type="matrix" values="0 0 0 0 0 0 0 0 0 0 0 0 0 0 0 0 0 0 127 0" result="hardAlpha"/>
<feOffset dy="4"/>
<feGaussianBlur stdDeviation="2"/>
<feComposite in2="hardAlpha" operator="out"/>
<feColorMatrix type="matrix" values="0 0 0 0 0 0 0 0 0 0 0 0 0 0 0 0 0 0 0.25 0"/>
<feBlend mode="normal" in2="BackgroundImageFix" result="effect1_dropShadow_54_5"/>
<feBlend mode="normal" in="SourceGraphic" in2="effect1_dropShadow_54_5" result="shape"/>
</filter>
<filter id="filter1_i_54_5" x="39.084" y="23.4609" width="219.568" height="28.6445" filterUnits="userSpaceOnUse" color-interpolation-filters="sRGB">
<feFlood flood-opacity="0" result="BackgroundImageFix"/>
<feBlend mode="normal" in="SourceGraphic" in2="BackgroundImageFix" result="shape"/>
<feColorMatrix in="SourceAlpha" type="matrix" values="0 0 0 0 0 0 0 0 0 0 0 0 0 0 0 0 0 0 127 0" result="hardAlpha"/>
<feOffset dy="4"/>
<feGaussianBlur stdDeviation="2"/>
<feComposite in2="hardAlpha" operator="arithmetic" k2="-1" k3="1"/>
<feColorMatrix type="matrix" values="0 0 0 0 0 0 0 0 0 0 0 0 0 0 0 0 0 0 0.25 0"/>
<feBlend mode="normal" in2="shape" result="effect1_innerShadow_54_5"/>
</filter>
</defs>
</svg>
