<svg width="113" height="40" viewBox="0 0 226 80" fill="none" xmlns="http://www.w3.org/2000/svg">
<g id="Group 11">
<g id="Rectangle 21" filter="url(#filter0_d_66_5)">
<rect x="4" width="218" height="72" rx="20" fill="#3F81FB"/>
</g>
<g id="Eventos" filter="url(#filter1_i_66_5)">
<path d="M52.1289 47.8945H43.6914C41.3711 47.8945 40.2109 46.875 40.2109 44.8359V27.2227C40.2109 25.1836 41.3711 24.1641 43.6914 24.1641H52.1289C53.9336 24.1641 54.8359 25.0957 54.8359 26.959C54.8359 28.8223 53.9336 29.7539 52.1289 29.7539H47.1719V33.1641H51.4258C53.2305 33.1641 54.1328 34.1016 54.1328 35.9766C54.1328 37.8516 53.2305 38.7891 51.4258 38.7891H47.1719V42.3047H52.1289C53.9336 42.3047 54.8359 43.2363 54.8359 45.0996C54.8359 46.9629 53.9336 47.8945 52.1289 47.8945ZM67.4043 47.9648C66.0098 47.9648 64.9199 47.1328 64.1348 45.4688L56.8574 29.6133C56.5059 28.8516 56.3301 28.1602 56.3301 27.5391C56.3301 26.9062 56.5586 26.168 57.0156 25.3242C57.4727 24.4805 58.4219 24.0645 59.8633 24.0762C61.3164 24.0879 62.4121 24.9023 63.1504 26.5195L67.4043 35.8008L71.623 26.5195C72.3613 24.9023 73.4512 24.0879 74.8926 24.0762C76.3457 24.0645 77.3008 24.4805 77.7578 25.3242C78.2148 26.168 78.4434 26.9062 78.4434 27.5391C78.4434 28.1602 78.2676 28.8516 77.916 29.6133L70.6387 45.4688C69.877 47.1328 68.7988 47.9648 67.4043 47.9648ZM91.8555 47.8945H83.418C81.0977 47.8945 79.9375 46.875 79.9375 44.8359V27.2227C79.9375 25.1836 81.0977 24.1641 83.418 24.1641H91.8555C93.6602 24.1641 94.5625 25.0957 94.5625 26.959C94.5625 28.8223 93.6602 29.7539 91.8555 29.7539H86.8984V33.1641H91.1523C92.957 33.1641 93.8594 34.1016 93.8594 35.9766C93.8594 37.8516 92.957 38.7891 91.1523 38.7891H86.8984V42.3047H91.8555C93.6602 42.3047 94.5625 43.2363 94.5625 45.0996C94.5625 46.9629 93.6602 47.8945 91.8555 47.8945ZM110.664 34.7461V27.2227C110.664 25.1836 111.824 24.1641 114.145 24.1641C116.465 24.1641 117.625 25.1836 117.625 27.2227V44.8359C117.625 46.875 116.465 47.8945 114.145 47.8945C112.855 47.8945 111.836 47.4492 111.086 46.5586L103.281 37.2773V44.8359C103.281 46.875 102.121 47.8945 99.8008 47.8945C97.4805 47.8945 96.3203 46.875 96.3203 44.8359V27.2227C96.3203 25.1953 97.4805 24.1758 99.8008 24.1641C101.289 24.1523 102.355 24.6328 103 25.6055L110.664 34.7461ZM132.408 29.7539V44.8711C132.408 46.9102 131.248 47.9297 128.928 47.9297C126.607 47.9297 125.447 46.9102 125.447 44.8711V29.7539H121.932C120.057 29.7539 119.119 28.8223 119.119 26.959C119.119 25.0957 120.057 24.1641 121.932 24.1641H135.959C137.834 24.1641 138.771 25.0957 138.771 26.959C138.771 28.8223 137.834 29.7539 135.959 29.7539H132.408ZM165.139 35.8008C165.139 39.4688 163.949 42.4395 161.57 44.7129C159.191 46.9746 156.18 48.1055 152.535 48.1055C148.891 48.1055 145.891 46.9746 143.535 44.7129C141.18 42.4395 140.002 39.4688 140.002 35.8008C140.002 32.1328 141.174 29.1621 143.518 26.8887C145.861 24.6035 148.879 23.4609 152.57 23.4609C156.273 23.4609 159.291 24.6035 161.623 26.8887C163.967 29.1621 165.139 32.1328 165.139 35.8008ZM156.807 31.3887C155.752 30.2285 154.346 29.6484 152.588 29.6484C150.83 29.6484 149.418 30.2344 148.352 31.4062C147.285 32.5664 146.752 34.0371 146.752 35.8184C146.752 37.5879 147.285 39.0469 148.352 40.1953C149.418 41.3438 150.824 41.918 152.57 41.918C154.328 41.918 155.734 41.3379 156.789 40.1777C157.855 39.0176 158.389 37.5527 158.389 35.7832C158.389 34.0137 157.861 32.5488 156.807 31.3887ZM176.107 47.9648C173.857 47.9648 171.672 47.6074 169.551 46.8926C167.43 46.1777 166.369 44.9004 166.369 43.0605C166.369 41.2207 167.201 40.3008 168.865 40.3008C169.111 40.3008 170.09 40.623 171.801 41.2676C173.512 41.9121 174.988 42.2344 176.23 42.2344C177.484 42.2344 178.111 41.707 178.111 40.6523C178.111 39.9609 177.684 39.3867 176.828 38.9297C175.973 38.4609 174.777 37.9746 173.242 37.4707C171.719 36.9668 170.764 36.5859 170.377 36.3281C168.596 35.1445 167.705 33.4219 167.705 31.1602C167.705 28.8867 168.449 27.0469 169.938 25.6406C171.391 24.2578 173.107 23.5664 175.088 23.5664C177.068 23.5664 178.791 23.7832 180.256 24.2168C182.998 25.084 184.1 26.3672 183.561 28.0664C183.033 29.7539 182.061 30.5391 180.643 30.4219C180.514 30.4219 179.811 30.1816 178.533 29.7012C177.256 29.2207 176.119 28.9805 175.123 28.9805C174.139 28.9805 173.646 29.4668 173.646 30.4395C173.646 31.0605 174.062 31.5996 174.895 32.0566C175.738 32.502 176.922 32.9941 178.445 33.5332C179.969 34.0605 180.936 34.4648 181.346 34.7461C183.15 35.9648 184.053 37.7812 184.053 40.1953C184.053 42.5977 183.279 44.502 181.732 45.9082C180.244 47.2793 178.369 47.9648 176.107 47.9648Z" fill="#F1F0F8"/>
</g>
</g>
<defs>
<filter id="filter0_d_66_5" x="0" y="0" width="226" height="80" filterUnits="userSpaceOnUse" color-interpolation-filters="sRGB">
<feFlood flood-opacity="0" result="BackgroundImageFix"/>
<feColorMatrix in="SourceAlpha" type="matrix" values="0 0 0 0 0 0 0 0 0 0 0 0 0 0 0 0 0 0 127 0" result="hardAlpha"/>
<feOffset dy="4"/>
<feGaussianBlur stdDeviation="2"/>
<feComposite in2="hardAlpha" operator="out"/>
<feColorMatrix type="matrix" values="0 0 0 0 0 0 0 0 0 0 0 0 0 0 0 0 0 0 0.25 0"/>
<feBlend mode="normal" in2="BackgroundImageFix" result="effect1_dropShadow_66_5"/>
<feBlend mode="normal" in="SourceGraphic" in2="effect1_dropShadow_66_5" result="shape"/>
</filter>
<filter id="filter1_i_66_5" x="40.2109" y="23.4609" width="144.158" height="28.6445" filterUnits="userSpaceOnUse" color-interpolation-filters="sRGB">
<feFlood flood-opacity="0" result="BackgroundImageFix"/>
<feBlend mode="normal" in="SourceGraphic" in2="BackgroundImageFix" result="shape"/>
<feColorMatrix in="SourceAlpha" type="matrix" values="0 0 0 0 0 0 0 0 0 0 0 0 0 0 0 0 0 0 127 0" result="hardAlpha"/>
<feOffset dy="4"/>
<feGaussianBlur stdDeviation="2"/>
<feComposite in2="hardAlpha" operator="arithmetic" k2="-1" k3="1"/>
<feColorMatrix type="matrix" values="0 0 0 0 0 0 0 0 0 0 0 0 0 0 0 0 0 0 0.25 0"/>
<feBlend mode="normal" in2="shape" result="effect1_innerShadow_66_5"/>
</filter>
</defs>
</svg>
