<svg width="155" height="40" viewBox="0 0 310 80" fill="none" xmlns="http://www.w3.org/2000/svg">
<g id="Group 14">
<g id="Rectangle 21" filter="url(#filter0_d_78_2)">
<rect x="4" width="302" height="72" rx="20" fill="#3F81FB"/>
</g>
<g id="agendamento" filter="url(#filter1_i_78_2)">
<path d="M45.3242 38.0859L43.8125 33.9727L42.3008 38.0859H45.3242ZM40.2266 43.7109L39.5586 45.5039C38.9609 47.0977 37.9766 47.8945 36.6055 47.8945C35.2461 47.8945 34.2676 47.4785 33.6699 46.6465C33.084 45.8027 32.791 45.0469 32.791 44.3789C32.791 43.7109 32.9375 43.0547 33.2305 42.4102L40.4727 26.5547C41.1992 24.9609 42.3066 24.1641 43.7949 24.1641C45.2832 24.1641 46.3906 24.9609 47.1172 26.5547L54.3945 42.4102C54.6992 43.0664 54.8516 43.7285 54.8516 44.3965C54.8516 45.0645 54.5645 45.8145 53.9902 46.6465C53.416 47.4785 52.4316 47.8945 51.0371 47.8945C49.6543 47.8945 48.6641 47.0977 48.0664 45.5039L47.3984 43.7109H40.2266ZM75.6816 33.3398C77.4863 33.3398 78.3887 34.4062 78.3887 36.5391V42.9727C78.3887 44.4258 77.6152 45.6445 76.0684 46.6289C74.5215 47.6133 71.9844 48.1055 68.457 48.1055C64.9297 48.1055 61.9883 46.9746 59.6328 44.7129C57.2773 42.4395 56.0996 39.4688 56.0996 35.8008C56.0996 32.1328 57.2715 29.1621 59.6152 26.8887C61.959 24.6035 64.7715 23.4609 68.0527 23.4609C71.3457 23.4609 73.8477 23.9766 75.5586 25.0078C77.2812 26.0391 78.1543 27.0059 78.1777 27.9082C78.2012 28.8105 77.9023 29.6191 77.2812 30.334C76.6719 31.0371 76.0684 31.3887 75.4707 31.3887C74.8848 31.3887 74.0293 31.1074 72.9043 30.5449C71.791 29.9707 70.291 29.6719 68.4043 29.6484C66.5176 29.625 65.1172 30.2051 64.2031 31.3887C63.3008 32.5605 62.8496 34.0371 62.8496 35.8184C62.8496 37.5879 63.3828 39.0469 64.4492 40.1953C65.5156 41.3438 66.9688 41.9062 68.8086 41.8828C70.6484 41.8594 71.5684 41.1445 71.5684 39.7383C71.5684 39.5742 71.5449 39.4102 71.498 39.2461H70.4082C68.2988 39.2461 67.2441 38.2617 67.2441 36.293C67.2441 34.3242 68.2988 33.3398 70.4082 33.3398H75.6816ZM92.0469 47.8945H83.6094C81.2891 47.8945 80.1289 46.875 80.1289 44.8359V27.2227C80.1289 25.1836 81.2891 24.1641 83.6094 24.1641H92.0469C93.8516 24.1641 94.7539 25.0957 94.7539 26.959C94.7539 28.8223 93.8516 29.7539 92.0469 29.7539H87.0898V33.1641H91.3438C93.1484 33.1641 94.0508 34.1016 94.0508 35.9766C94.0508 37.8516 93.1484 38.7891 91.3438 38.7891H87.0898V42.3047H92.0469C93.8516 42.3047 94.7539 43.2363 94.7539 45.0996C94.7539 46.9629 93.8516 47.8945 92.0469 47.8945ZM110.855 34.7461V27.2227C110.855 25.1836 112.016 24.1641 114.336 24.1641C116.656 24.1641 117.816 25.1836 117.816 27.2227V44.8359C117.816 46.875 116.656 47.8945 114.336 47.8945C113.047 47.8945 112.027 47.4492 111.277 46.5586L103.473 37.2773V44.8359C103.473 46.875 102.312 47.8945 99.9922 47.8945C97.6719 47.8945 96.5117 46.875 96.5117 44.8359V27.2227C96.5117 25.1953 97.6719 24.1758 99.9922 24.1641C101.48 24.1523 102.547 24.6328 103.191 25.6055L110.855 34.7461ZM130.121 47.8945H123.055C120.734 47.8945 119.574 46.875 119.574 44.8359V27.2227C119.574 25.1836 120.734 24.1641 123.055 24.1641H130.121C134 24.6094 136.672 26.7539 138.137 30.5977C138.863 32.3906 139.227 34.207 139.227 36.0469C139.227 37.875 138.863 39.6797 138.137 41.4609C136.672 45.3047 134 47.4492 130.121 47.8945ZM132.775 35.8184C132.764 31.3535 131.105 29.0625 127.801 28.9453H126.535V43.0078L127.801 43.043C131.129 42.6914 132.787 40.2832 132.775 35.8184ZM153.008 38.0859L151.496 33.9727L149.984 38.0859H153.008ZM147.91 43.7109L147.242 45.5039C146.645 47.0977 145.66 47.8945 144.289 47.8945C142.93 47.8945 141.951 47.4785 141.354 46.6465C140.768 45.8027 140.475 45.0469 140.475 44.3789C140.475 43.7109 140.621 43.0547 140.914 42.4102L148.156 26.5547C148.883 24.9609 149.99 24.1641 151.479 24.1641C152.967 24.1641 154.074 24.9609 154.801 26.5547L162.078 42.4102C162.383 43.0664 162.535 43.7285 162.535 44.3965C162.535 45.0645 162.248 45.8145 161.674 46.6465C161.1 47.4785 160.115 47.8945 158.721 47.8945C157.338 47.8945 156.348 47.0977 155.75 45.5039L155.082 43.7109H147.91ZM175.648 31.4766L180.535 25.6055C181.332 24.6445 182.41 24.1641 183.77 24.1641C186.09 24.1641 187.25 25.1836 187.25 27.2227V44.8359C187.25 46.875 186.09 47.8945 183.77 47.8945C181.449 47.8945 180.289 46.875 180.289 44.8359V35.1328L175.648 40.582L171.008 35.168V44.8359C171.008 46.875 169.848 47.8945 167.527 47.8945C165.207 47.8945 164.047 46.875 164.047 44.8359V27.2227C164.047 25.1484 165.207 24.1289 167.527 24.1641C168.863 24.1758 169.93 24.6562 170.727 25.6055L175.648 31.4766ZM200.926 47.8945H192.488C190.168 47.8945 189.008 46.875 189.008 44.8359V27.2227C189.008 25.1836 190.168 24.1641 192.488 24.1641H200.926C202.73 24.1641 203.633 25.0957 203.633 26.959C203.633 28.8223 202.73 29.7539 200.926 29.7539H195.969V33.1641H200.223C202.027 33.1641 202.93 34.1016 202.93 35.9766C202.93 37.8516 202.027 38.7891 200.223 38.7891H195.969V42.3047H200.926C202.73 42.3047 203.633 43.2363 203.633 45.0996C203.633 46.9629 202.73 47.8945 200.926 47.8945ZM219.734 34.7461V27.2227C219.734 25.1836 220.895 24.1641 223.215 24.1641C225.535 24.1641 226.695 25.1836 226.695 27.2227V44.8359C226.695 46.875 225.535 47.8945 223.215 47.8945C221.926 47.8945 220.906 47.4492 220.156 46.5586L212.352 37.2773V44.8359C212.352 46.875 211.191 47.8945 208.871 47.8945C206.551 47.8945 205.391 46.875 205.391 44.8359V27.2227C205.391 25.1953 206.551 24.1758 208.871 24.1641C210.359 24.1523 211.426 24.6328 212.07 25.6055L219.734 34.7461ZM241.479 29.7539V44.8711C241.479 46.9102 240.318 47.9297 237.998 47.9297C235.678 47.9297 234.518 46.9102 234.518 44.8711V29.7539H231.002C229.127 29.7539 228.189 28.8223 228.189 26.959C228.189 25.0957 229.127 24.1641 231.002 24.1641H245.029C246.904 24.1641 247.842 25.0957 247.842 26.959C247.842 28.8223 246.904 29.7539 245.029 29.7539H241.479ZM274.209 35.8008C274.209 39.4688 273.02 42.4395 270.641 44.7129C268.262 46.9746 265.25 48.1055 261.605 48.1055C257.961 48.1055 254.961 46.9746 252.605 44.7129C250.25 42.4395 249.072 39.4688 249.072 35.8008C249.072 32.1328 250.244 29.1621 252.588 26.8887C254.932 24.6035 257.949 23.4609 261.641 23.4609C265.344 23.4609 268.361 24.6035 270.693 26.8887C273.037 29.1621 274.209 32.1328 274.209 35.8008ZM265.877 31.3887C264.822 30.2285 263.416 29.6484 261.658 29.6484C259.9 29.6484 258.488 30.2344 257.422 31.4062C256.355 32.5664 255.822 34.0371 255.822 35.8184C255.822 37.5879 256.355 39.0469 257.422 40.1953C258.488 41.3438 259.895 41.918 261.641 41.918C263.398 41.918 264.805 41.3379 265.859 40.1777C266.926 39.0176 267.459 37.5527 267.459 35.7832C267.459 34.0137 266.932 32.5488 265.877 31.3887Z" fill="#F1F0F8"/>
</g>
</g>
<defs>
<filter id="filter0_d_78_2" x="0" y="0" width="310" height="80" filterUnits="userSpaceOnUse" color-interpolation-filters="sRGB">
<feFlood flood-opacity="0" result="BackgroundImageFix"/>
<feColorMatrix in="SourceAlpha" type="matrix" values="0 0 0 0 0 0 0 0 0 0 0 0 0 0 0 0 0 0 127 0" result="hardAlpha"/>
<feOffset dy="4"/>
<feGaussianBlur stdDeviation="2"/>
<feComposite in2="hardAlpha" operator="out"/>
<feColorMatrix type="matrix" values="0 0 0 0 0 0 0 0 0 0 0 0 0 0 0 0 0 0 0.25 0"/>
<feBlend mode="normal" in2="BackgroundImageFix" result="effect1_dropShadow_78_2"/>
<feBlend mode="normal" in="SourceGraphic" in2="effect1_dropShadow_78_2" result="shape"/>
</filter>
<filter id="filter1_i_78_2" x="32.791" y="23.4609" width="241.418" height="28.6445" filterUnits="userSpaceOnUse" color-interpolation-filters="sRGB">
<feFlood flood-opacity="0" result="BackgroundImageFix"/>
<feBlend mode="normal" in="SourceGraphic" in2="BackgroundImageFix" result="shape"/>
<feColorMatrix in="SourceAlpha" type="matrix" values="0 0 0 0 0 0 0 0 0 0 0 0 0 0 0 0 0 0 127 0" result="hardAlpha"/>
<feOffset dy="4"/>
<feGaussianBlur stdDeviation="2"/>
<feComposite in2="hardAlpha" operator="arithmetic" k2="-1" k3="1"/>
<feColorMatrix type="matrix" values="0 0 0 0 0 0 0 0 0 0 0 0 0 0 0 0 0 0 0.25 0"/>
<feBlend mode="normal" in2="shape" result="effect1_innerShadow_78_2"/>
</filter>
</defs>
</svg>
