<svg width="77" height="40" viewBox="0 0 154 80" fill="none" xmlns="http://www.w3.org/2000/svg">
<g id="Group 16">
<g id="Rectangle 21" filter="url(#filter0_d_78_8)">
<rect x="4" width="146" height="72" rx="20" fill="#3F81FB"/>
</g>
<g id="perfil" filter="url(#filter1_i_78_8)">
<path d="M38.4707 39.9844H34.9199V44.8359C34.9199 46.875 33.7598 47.8945 31.4395 47.8945C29.1191 47.8945 27.959 46.875 27.959 44.8359V27.293C27.959 25.2539 29.1191 24.2344 31.4395 24.2344H39.3145C41.2715 24.2344 42.9062 25.0078 44.2188 26.5547C45.543 28.0898 46.1758 29.9238 46.1172 32.0566C46.0703 34.1777 45.3438 36.0293 43.9375 37.6113C42.5312 39.1934 40.709 39.9844 38.4707 39.9844ZM36.9238 28.9453H34.9199V34.3594H36.9238C38.8926 34.3594 39.877 33.457 39.877 31.6523C39.877 29.8477 38.8926 28.9453 36.9238 28.9453ZM59.5293 47.8945H51.0918C48.7715 47.8945 47.6113 46.875 47.6113 44.8359V27.2227C47.6113 25.1836 48.7715 24.1641 51.0918 24.1641H59.5293C61.334 24.1641 62.2363 25.0957 62.2363 26.959C62.2363 28.8223 61.334 29.7539 59.5293 29.7539H54.5723V33.1641H58.8262C60.6309 33.1641 61.5332 34.1016 61.5332 35.9766C61.5332 37.8516 60.6309 38.7891 58.8262 38.7891H54.5723V42.3047H59.5293C61.334 42.3047 62.2363 43.2363 62.2363 45.0996C62.2363 46.9629 61.334 47.8945 59.5293 47.8945ZM78.584 37.8047L82.0645 42.375C82.5801 43.0547 82.8379 43.7812 82.8379 44.5547C82.8379 45.3281 82.3691 46.0781 81.4316 46.8047C80.4941 47.5195 79.6328 47.877 78.8477 47.877C78.0625 47.877 77.3184 47.4023 76.6152 46.4531L70.9551 38.8945V44.8359C70.9551 46.875 69.7949 47.8945 67.4746 47.8945C65.1543 47.8945 63.9941 46.875 63.9941 44.8359V27.2227C63.9941 25.1836 65.1543 24.1641 67.4746 24.1641H75.3496C77.2949 24.1641 78.9121 24.9141 80.2012 26.4141C81.4902 27.9023 82.1348 29.502 82.1348 31.2129C82.1348 34.2715 80.9512 36.4688 78.584 37.8047ZM70.9551 28.9453V34.3594H72.959C74.9277 34.3594 75.9121 33.457 75.9121 31.6523C75.9121 29.8477 74.9277 28.9453 72.959 28.9453H70.9551ZM91.3105 44.8359C91.3105 46.8633 90.1504 47.8828 87.8301 47.8945C85.5098 47.9062 84.3496 46.8867 84.3496 44.8359V27.2227C84.3496 25.1836 85.5098 24.1641 87.8301 24.1641H96.2676C98.0723 24.1641 98.9746 25.0957 98.9746 26.959C98.9746 28.8223 98.0723 29.7539 96.2676 29.7539H91.3105V33.1641H95.5645C97.3691 33.1641 98.2715 34.1016 98.2715 35.9766C98.2715 37.8516 97.3691 38.7891 95.5645 38.7891H91.3105V44.8359ZM107.693 44.8359C107.693 46.875 106.533 47.8945 104.213 47.8945C101.893 47.8945 100.732 46.875 100.732 44.8359V27.2227C100.732 25.1836 101.893 24.1641 104.213 24.1641C106.533 24.1641 107.693 25.1836 107.693 27.2227V44.8359ZM121.861 47.8945H112.932C110.611 47.8945 109.451 46.875 109.451 44.8359V27.2227C109.451 25.1836 110.611 24.1641 112.932 24.1641C115.252 24.1641 116.412 25.1836 116.412 27.2227V42.3047H121.861C123.314 42.3047 124.041 43.2363 124.041 45.0996C124.041 46.9629 123.314 47.8945 121.861 47.8945Z" fill="#F1F0F8"/>
</g>
</g>
<defs>
<filter id="filter0_d_78_8" x="0" y="0" width="154" height="80" filterUnits="userSpaceOnUse" color-interpolation-filters="sRGB">
<feFlood flood-opacity="0" result="BackgroundImageFix"/>
<feColorMatrix in="SourceAlpha" type="matrix" values="0 0 0 0 0 0 0 0 0 0 0 0 0 0 0 0 0 0 127 0" result="hardAlpha"/>
<feOffset dy="4"/>
<feGaussianBlur stdDeviation="2"/>
<feComposite in2="hardAlpha" operator="out"/>
<feColorMatrix type="matrix" values="0 0 0 0 0 0 0 0 0 0 0 0 0 0 0 0 0 0 0.25 0"/>
<feBlend mode="normal" in2="BackgroundImageFix" result="effect1_dropShadow_78_8"/>
<feBlend mode="normal" in="SourceGraphic" in2="effect1_dropShadow_78_8" result="shape"/>
</filter>
<filter id="filter1_i_78_8" x="27.959" y="24.1641" width="96.082" height="27.748" filterUnits="userSpaceOnUse" color-interpolation-filters="sRGB">
<feFlood flood-opacity="0" result="BackgroundImageFix"/>
<feBlend mode="normal" in="SourceGraphic" in2="BackgroundImageFix" result="shape"/>
<feColorMatrix in="SourceAlpha" type="matrix" values="0 0 0 0 0 0 0 0 0 0 0 0 0 0 0 0 0 0 127 0" result="hardAlpha"/>
<feOffset dy="4"/>
<feGaussianBlur stdDeviation="2"/>
<feComposite in2="hardAlpha" operator="arithmetic" k2="-1" k3="1"/>
<feColorMatrix type="matrix" values="0 0 0 0 0 0 0 0 0 0 0 0 0 0 0 0 0 0 0.25 0"/>
<feBlend mode="normal" in2="shape" result="effect1_innerShadow_78_8"/>
</filter>
</defs>
</svg>
