<svg width="113" height="113" viewBox="0 0 113 113" fill="none" xmlns="http://www.w3.org/2000/svg">
<g filter="url(#filter0_d_9_45)">
<circle cx="56.5" cy="52.5" r="52.5" fill="#3F81FB"/>
</g>
<g filter="url(#filter1_i_9_45)">
<path d="M56.8759 52.8999C63.4757 52.8999 68.8259 47.5497 68.8259 40.95C68.8259 34.3502 63.4757 29 56.8759 29C50.2761 29 44.926 34.3502 44.926 40.95C44.926 47.5497 50.2761 52.8999 56.8759 52.8999Z" stroke="#F1F0F8" stroke-width="6"/>
<path d="M68.8259 57.6799H69.6664C73.2823 57.6799 76.3324 60.3724 76.781 63.9605L77.7142 71.4269C78.0708 74.2798 75.8462 76.7998 72.9711 76.7998H40.7807C37.9055 76.7998 35.681 74.2798 36.0376 71.4269L36.9709 63.9605C37.4194 60.3724 40.4695 57.6799 44.0855 57.6799H44.926" stroke="#F1F0F8" stroke-width="6" stroke-linecap="round" stroke-linejoin="round"/>
</g>
<defs>
<filter id="filter0_d_9_45" x="0" y="0" width="113" height="113" filterUnits="userSpaceOnUse" color-interpolation-filters="sRGB">
<feFlood flood-opacity="0" result="BackgroundImageFix"/>
<feColorMatrix in="SourceAlpha" type="matrix" values="0 0 0 0 0 0 0 0 0 0 0 0 0 0 0 0 0 0 127 0" result="hardAlpha"/>
<feOffset dy="4"/>
<feGaussianBlur stdDeviation="2"/>
<feComposite in2="hardAlpha" operator="out"/>
<feColorMatrix type="matrix" values="0 0 0 0 0 0 0 0 0 0 0 0 0 0 0 0 0 0 0.25 0"/>
<feBlend mode="normal" in2="BackgroundImageFix" result="effect1_dropShadow_9_45"/>
<feBlend mode="normal" in="SourceGraphic" in2="effect1_dropShadow_9_45" result="shape"/>
</filter>
<filter id="filter1_i_9_45" x="32.9996" y="26" width="47.7527" height="57.7998" filterUnits="userSpaceOnUse" color-interpolation-filters="sRGB">
<feFlood flood-opacity="0" result="BackgroundImageFix"/>
<feBlend mode="normal" in="SourceGraphic" in2="BackgroundImageFix" result="shape"/>
<feColorMatrix in="SourceAlpha" type="matrix" values="0 0 0 0 0 0 0 0 0 0 0 0 0 0 0 0 0 0 127 0" result="hardAlpha"/>
<feOffset dy="4"/>
<feGaussianBlur stdDeviation="2"/>
<feComposite in2="hardAlpha" operator="arithmetic" k2="-1" k3="1"/>
<feColorMatrix type="matrix" values="0 0 0 0 0 0 0 0 0 0 0 0 0 0 0 0 0 0 0.25 0"/>
<feBlend mode="normal" in2="shape" result="effect1_innerShadow_9_45"/>
</filter>
</defs>
</svg>
