<svg width="92" height="40" viewBox="0 0 184 80" fill="none" xmlns="http://www.w3.org/2000/svg">
<g id="Group 8">
<g id="Rectangle 21" filter="url(#filter0_d_54_2)">
<rect x="4" width="176" height="72" rx="20" fill="#3F81FB"/>
</g>
<g id="Entre" filter="url(#filter1_i_54_2)">
<path d="M55.2637 47.8945H46.8262C44.5059 47.8945 43.3457 46.875 43.3457 44.8359V27.2227C43.3457 25.1836 44.5059 24.1641 46.8262 24.1641H55.2637C57.0684 24.1641 57.9707 25.0957 57.9707 26.959C57.9707 28.8223 57.0684 29.7539 55.2637 29.7539H50.3066V33.1641H54.5605C56.3652 33.1641 57.2676 34.1016 57.2676 35.9766C57.2676 37.8516 56.3652 38.7891 54.5605 38.7891H50.3066V42.3047H55.2637C57.0684 42.3047 57.9707 43.2363 57.9707 45.0996C57.9707 46.9629 57.0684 47.8945 55.2637 47.8945ZM74.0723 34.7461V27.2227C74.0723 25.1836 75.2324 24.1641 77.5527 24.1641C79.873 24.1641 81.0332 25.1836 81.0332 27.2227V44.8359C81.0332 46.875 79.873 47.8945 77.5527 47.8945C76.2637 47.8945 75.2441 47.4492 74.4941 46.5586L66.6895 37.2773V44.8359C66.6895 46.875 65.5293 47.8945 63.209 47.8945C60.8887 47.8945 59.7285 46.875 59.7285 44.8359V27.2227C59.7285 25.1953 60.8887 24.1758 63.209 24.1641C64.6973 24.1523 65.7637 24.6328 66.4082 25.6055L74.0723 34.7461ZM95.8164 29.7539V44.8711C95.8164 46.9102 94.6562 47.9297 92.3359 47.9297C90.0156 47.9297 88.8555 46.9102 88.8555 44.8711V29.7539H85.3398C83.4648 29.7539 82.5273 28.8223 82.5273 26.959C82.5273 25.0957 83.4648 24.1641 85.3398 24.1641H99.3672C101.242 24.1641 102.18 25.0957 102.18 26.959C102.18 28.8223 101.242 29.7539 99.3672 29.7539H95.8164ZM118.264 37.8047L121.744 42.375C122.26 43.0547 122.518 43.7812 122.518 44.5547C122.518 45.3281 122.049 46.0781 121.111 46.8047C120.174 47.5195 119.312 47.877 118.527 47.877C117.742 47.877 116.998 47.4023 116.295 46.4531L110.635 38.8945V44.8359C110.635 46.875 109.475 47.8945 107.154 47.8945C104.834 47.8945 103.674 46.875 103.674 44.8359V27.2227C103.674 25.1836 104.834 24.1641 107.154 24.1641H115.029C116.975 24.1641 118.592 24.9141 119.881 26.4141C121.17 27.9023 121.814 29.502 121.814 31.2129C121.814 34.2715 120.631 36.4688 118.264 37.8047ZM110.635 28.9453V34.3594H112.639C114.607 34.3594 115.592 33.457 115.592 31.6523C115.592 29.8477 114.607 28.9453 112.639 28.9453H110.635ZM135.947 47.8945H127.51C125.189 47.8945 124.029 46.875 124.029 44.8359V27.2227C124.029 25.1836 125.189 24.1641 127.51 24.1641H135.947C137.752 24.1641 138.654 25.0957 138.654 26.959C138.654 28.8223 137.752 29.7539 135.947 29.7539H130.99V33.1641H135.244C137.049 33.1641 137.951 34.1016 137.951 35.9766C137.951 37.8516 137.049 38.7891 135.244 38.7891H130.99V42.3047H135.947C137.752 42.3047 138.654 43.2363 138.654 45.0996C138.654 46.9629 137.752 47.8945 135.947 47.8945Z" fill="#F1F0F8"/>
</g>
</g>
<defs>
<filter id="filter0_d_54_2" x="0" y="0" width="184" height="80" filterUnits="userSpaceOnUse" color-interpolation-filters="sRGB">
<feFlood flood-opacity="0" result="BackgroundImageFix"/>
<feColorMatrix in="SourceAlpha" type="matrix" values="0 0 0 0 0 0 0 0 0 0 0 0 0 0 0 0 0 0 127 0" result="hardAlpha"/>
<feOffset dy="4"/>
<feGaussianBlur stdDeviation="2"/>
<feComposite in2="hardAlpha" operator="out"/>
<feColorMatrix type="matrix" values="0 0 0 0 0 0 0 0 0 0 0 0 0 0 0 0 0 0 0.25 0"/>
<feBlend mode="normal" in2="BackgroundImageFix" result="effect1_dropShadow_54_2"/>
<feBlend mode="normal" in="SourceGraphic" in2="effect1_dropShadow_54_2" result="shape"/>
</filter>
<filter id="filter1_i_54_2" x="43.3457" y="24.1465" width="95.3086" height="27.7832" filterUnits="userSpaceOnUse" color-interpolation-filters="sRGB">
<feFlood flood-opacity="0" result="BackgroundImageFix"/>
<feBlend mode="normal" in="SourceGraphic" in2="BackgroundImageFix" result="shape"/>
<feColorMatrix in="SourceAlpha" type="matrix" values="0 0 0 0 0 0 0 0 0 0 0 0 0 0 0 0 0 0 127 0" result="hardAlpha"/>
<feOffset dy="4"/>
<feGaussianBlur stdDeviation="2"/>
<feComposite in2="hardAlpha" operator="arithmetic" k2="-1" k3="1"/>
<feColorMatrix type="matrix" values="0 0 0 0 0 0 0 0 0 0 0 0 0 0 0 0 0 0 0.25 0"/>
<feBlend mode="normal" in2="shape" result="effect1_innerShadow_54_2"/>
</filter>
</defs>
</svg>
