<svg width="236" height="80" viewBox="0 0 236 80" fill="none" xmlns="http://www.w3.org/2000/svg">
<g id="Group 13">
<g id="Rectangle 21" filter="url(#filter0_d_66_11)">
<rect x="4" width="228" height="72" rx="20" fill="#3F81FB"/>
</g>
<g id="ver perfil" filter="url(#filter1_i_66_11)">
<path d="M45.3691 47.9648C43.9746 47.9648 42.8848 47.1328 42.0996 45.4688L34.8223 29.6133C34.4707 28.8516 34.2949 28.1602 34.2949 27.5391C34.2949 26.9062 34.5234 26.168 34.9805 25.3242C35.4375 24.4805 36.3867 24.0645 37.8281 24.0762C39.2812 24.0879 40.377 24.9023 41.1152 26.5195L45.3691 35.8008L49.5879 26.5195C50.3262 24.9023 51.416 24.0879 52.8574 24.0762C54.3105 24.0645 55.2656 24.4805 55.7227 25.3242C56.1797 26.168 56.4082 26.9062 56.4082 27.5391C56.4082 28.1602 56.2324 28.8516 55.8809 29.6133L48.6035 45.4688C47.8418 47.1328 46.7637 47.9648 45.3691 47.9648ZM69.8203 47.8945H61.3828C59.0625 47.8945 57.9023 46.875 57.9023 44.8359V27.2227C57.9023 25.1836 59.0625 24.1641 61.3828 24.1641H69.8203C71.625 24.1641 72.5273 25.0957 72.5273 26.959C72.5273 28.8223 71.625 29.7539 69.8203 29.7539H64.8633V33.1641H69.1172C70.9219 33.1641 71.8242 34.1016 71.8242 35.9766C71.8242 37.8516 70.9219 38.7891 69.1172 38.7891H64.8633V42.3047H69.8203C71.625 42.3047 72.5273 43.2363 72.5273 45.0996C72.5273 46.9629 71.625 47.8945 69.8203 47.8945ZM88.875 37.8047L92.3555 42.375C92.8711 43.0547 93.1289 43.7812 93.1289 44.5547C93.1289 45.3281 92.6602 46.0781 91.7227 46.8047C90.7852 47.5195 89.9238 47.877 89.1387 47.877C88.3535 47.877 87.6094 47.4023 86.9062 46.4531L81.2461 38.8945V44.8359C81.2461 46.875 80.0859 47.8945 77.7656 47.8945C75.4453 47.8945 74.2852 46.875 74.2852 44.8359V27.2227C74.2852 25.1836 75.4453 24.1641 77.7656 24.1641H85.6406C87.5859 24.1641 89.2031 24.9141 90.4922 26.4141C91.7812 27.9023 92.4258 29.502 92.4258 31.2129C92.4258 34.2715 91.2422 36.4688 88.875 37.8047ZM81.2461 28.9453V34.3594H83.25C85.2188 34.3594 86.2031 33.457 86.2031 31.6523C86.2031 29.8477 85.2188 28.9453 83.25 28.9453H81.2461ZM113.871 39.9844H110.32V44.8359C110.32 46.875 109.16 47.8945 106.84 47.8945C104.52 47.8945 103.359 46.875 103.359 44.8359V27.293C103.359 25.2539 104.52 24.2344 106.84 24.2344H114.715C116.672 24.2344 118.307 25.0078 119.619 26.5547C120.943 28.0898 121.576 29.9238 121.518 32.0566C121.471 34.1777 120.744 36.0293 119.338 37.6113C117.932 39.1934 116.109 39.9844 113.871 39.9844ZM112.324 28.9453H110.32V34.3594H112.324C114.293 34.3594 115.277 33.457 115.277 31.6523C115.277 29.8477 114.293 28.9453 112.324 28.9453ZM134.93 47.8945H126.492C124.172 47.8945 123.012 46.875 123.012 44.8359V27.2227C123.012 25.1836 124.172 24.1641 126.492 24.1641H134.93C136.734 24.1641 137.637 25.0957 137.637 26.959C137.637 28.8223 136.734 29.7539 134.93 29.7539H129.973V33.1641H134.227C136.031 33.1641 136.934 34.1016 136.934 35.9766C136.934 37.8516 136.031 38.7891 134.227 38.7891H129.973V42.3047H134.93C136.734 42.3047 137.637 43.2363 137.637 45.0996C137.637 46.9629 136.734 47.8945 134.93 47.8945ZM153.984 37.8047L157.465 42.375C157.98 43.0547 158.238 43.7812 158.238 44.5547C158.238 45.3281 157.77 46.0781 156.832 46.8047C155.895 47.5195 155.033 47.877 154.248 47.877C153.463 47.877 152.719 47.4023 152.016 46.4531L146.355 38.8945V44.8359C146.355 46.875 145.195 47.8945 142.875 47.8945C140.555 47.8945 139.395 46.875 139.395 44.8359V27.2227C139.395 25.1836 140.555 24.1641 142.875 24.1641H150.75C152.695 24.1641 154.312 24.9141 155.602 26.4141C156.891 27.9023 157.535 29.502 157.535 31.2129C157.535 34.2715 156.352 36.4688 153.984 37.8047ZM146.355 28.9453V34.3594H148.359C150.328 34.3594 151.312 33.457 151.312 31.6523C151.312 29.8477 150.328 28.9453 148.359 28.9453H146.355ZM166.711 44.8359C166.711 46.8633 165.551 47.8828 163.23 47.8945C160.91 47.9062 159.75 46.8867 159.75 44.8359V27.2227C159.75 25.1836 160.91 24.1641 163.23 24.1641H171.668C173.473 24.1641 174.375 25.0957 174.375 26.959C174.375 28.8223 173.473 29.7539 171.668 29.7539H166.711V33.1641H170.965C172.77 33.1641 173.672 34.1016 173.672 35.9766C173.672 37.8516 172.77 38.7891 170.965 38.7891H166.711V44.8359ZM183.094 44.8359C183.094 46.875 181.934 47.8945 179.613 47.8945C177.293 47.8945 176.133 46.875 176.133 44.8359V27.2227C176.133 25.1836 177.293 24.1641 179.613 24.1641C181.934 24.1641 183.094 25.1836 183.094 27.2227V44.8359ZM197.262 47.8945H188.332C186.012 47.8945 184.852 46.875 184.852 44.8359V27.2227C184.852 25.1836 186.012 24.1641 188.332 24.1641C190.652 24.1641 191.812 25.1836 191.812 27.2227V42.3047H197.262C198.715 42.3047 199.441 43.2363 199.441 45.0996C199.441 46.9629 198.715 47.8945 197.262 47.8945Z" fill="#F1F0F8"/>
</g>
</g>
<defs>
<filter id="filter0_d_66_11" x="0" y="0" width="236" height="80" filterUnits="userSpaceOnUse" color-interpolation-filters="sRGB">
<feFlood flood-opacity="0" result="BackgroundImageFix"/>
<feColorMatrix in="SourceAlpha" type="matrix" values="0 0 0 0 0 0 0 0 0 0 0 0 0 0 0 0 0 0 127 0" result="hardAlpha"/>
<feOffset dy="4"/>
<feGaussianBlur stdDeviation="2"/>
<feComposite in2="hardAlpha" operator="out"/>
<feColorMatrix type="matrix" values="0 0 0 0 0 0 0 0 0 0 0 0 0 0 0 0 0 0 0.25 0"/>
<feBlend mode="normal" in2="BackgroundImageFix" result="effect1_dropShadow_66_11"/>
<feBlend mode="normal" in="SourceGraphic" in2="effect1_dropShadow_66_11" result="shape"/>
</filter>
<filter id="filter1_i_66_11" x="34.2949" y="24.0586" width="165.146" height="27.9062" filterUnits="userSpaceOnUse" color-interpolation-filters="sRGB">
<feFlood flood-opacity="0" result="BackgroundImageFix"/>
<feBlend mode="normal" in="SourceGraphic" in2="BackgroundImageFix" result="shape"/>
<feColorMatrix in="SourceAlpha" type="matrix" values="0 0 0 0 0 0 0 0 0 0 0 0 0 0 0 0 0 0 127 0" result="hardAlpha"/>
<feOffset dy="4"/>
<feGaussianBlur stdDeviation="2"/>
<feComposite in2="hardAlpha" operator="arithmetic" k2="-1" k3="1"/>
<feColorMatrix type="matrix" values="0 0 0 0 0 0 0 0 0 0 0 0 0 0 0 0 0 0 0.25 0"/>
<feBlend mode="normal" in2="shape" result="effect1_innerShadow_66_11"/>
</filter>
</defs>
</svg>
