<svg width="276" height="80" viewBox="0 0 276 80" fill="none" xmlns="http://www.w3.org/2000/svg">
<g id="Group 12">
<g id="Rectangle 21" filter="url(#filter0_d_66_8)">
<rect x="4" width="268" height="72" rx="20" fill="#3F81FB"/>
</g>
<g id="contratar" filter="url(#filter1_i_66_8)">
<path d="M62.8027 43.6406C62.8027 44.4844 62.1289 45.4395 60.7812 46.5059C59.4336 47.5723 56.9375 48.1055 53.293 48.1055C49.6484 48.1055 46.6484 46.9746 44.293 44.7129C41.9375 42.4395 40.7598 39.4688 40.7598 35.8008C40.7598 32.1328 41.9316 29.1621 44.2754 26.8887C46.6191 24.6035 49.6367 23.4609 53.3281 23.4609C57.0312 23.4609 59.5332 23.9941 60.834 25.0605C62.1465 26.127 62.8027 27.0879 62.8027 27.9434C62.8027 28.7871 62.5215 29.543 61.959 30.2109C61.3965 30.8672 60.7754 31.1953 60.0957 31.1953C59.4277 31.1953 58.3613 30.9375 56.8965 30.4219C55.4434 29.9062 54.3535 29.6484 53.627 29.6484C49.6895 29.6484 47.7207 31.6934 47.7207 35.7832C47.7207 39.873 49.6895 41.918 53.627 41.918C54.3535 41.918 55.4434 41.6602 56.8965 41.1445C58.3613 40.6289 59.4277 40.3711 60.0957 40.3711C60.7754 40.3711 61.3965 40.7051 61.959 41.373C62.5215 42.0293 62.8027 42.7852 62.8027 43.6406ZM89.4512 35.8008C89.4512 39.4688 88.2617 42.4395 85.8828 44.7129C83.5039 46.9746 80.4922 48.1055 76.8477 48.1055C73.2031 48.1055 70.2031 46.9746 67.8477 44.7129C65.4922 42.4395 64.3145 39.4688 64.3145 35.8008C64.3145 32.1328 65.4863 29.1621 67.8301 26.8887C70.1738 24.6035 73.1914 23.4609 76.8828 23.4609C80.5859 23.4609 83.6035 24.6035 85.9355 26.8887C88.2793 29.1621 89.4512 32.1328 89.4512 35.8008ZM81.1191 31.3887C80.0645 30.2285 78.6582 29.6484 76.9004 29.6484C75.1426 29.6484 73.7305 30.2344 72.6641 31.4062C71.5977 32.5664 71.0645 34.0371 71.0645 35.8184C71.0645 37.5879 71.5977 39.0469 72.6641 40.1953C73.7305 41.3438 75.1367 41.918 76.8828 41.918C78.6406 41.918 80.0469 41.3379 81.1016 40.1777C82.168 39.0176 82.7012 37.5527 82.7012 35.7832C82.7012 34.0137 82.1738 32.5488 81.1191 31.3887ZM105.289 34.7461V27.2227C105.289 25.1836 106.449 24.1641 108.77 24.1641C111.09 24.1641 112.25 25.1836 112.25 27.2227V44.8359C112.25 46.875 111.09 47.8945 108.77 47.8945C107.48 47.8945 106.461 47.4492 105.711 46.5586L97.9062 37.2773V44.8359C97.9062 46.875 96.7461 47.8945 94.4258 47.8945C92.1055 47.8945 90.9453 46.875 90.9453 44.8359V27.2227C90.9453 25.1953 92.1055 24.1758 94.4258 24.1641C95.9141 24.1523 96.9805 24.6328 97.625 25.6055L105.289 34.7461ZM127.033 29.7539V44.8711C127.033 46.9102 125.873 47.9297 123.553 47.9297C121.232 47.9297 120.072 46.9102 120.072 44.8711V29.7539H116.557C114.682 29.7539 113.744 28.8223 113.744 26.959C113.744 25.0957 114.682 24.1641 116.557 24.1641H130.584C132.459 24.1641 133.396 25.0957 133.396 26.959C133.396 28.8223 132.459 29.7539 130.584 29.7539H127.033ZM149.48 37.8047L152.961 42.375C153.477 43.0547 153.734 43.7812 153.734 44.5547C153.734 45.3281 153.266 46.0781 152.328 46.8047C151.391 47.5195 150.529 47.877 149.744 47.877C148.959 47.877 148.215 47.4023 147.512 46.4531L141.852 38.8945V44.8359C141.852 46.875 140.691 47.8945 138.371 47.8945C136.051 47.8945 134.891 46.875 134.891 44.8359V27.2227C134.891 25.1836 136.051 24.1641 138.371 24.1641H146.246C148.191 24.1641 149.809 24.9141 151.098 26.4141C152.387 27.9023 153.031 29.502 153.031 31.2129C153.031 34.2715 151.848 36.4688 149.48 37.8047ZM141.852 28.9453V34.3594H143.855C145.824 34.3594 146.809 33.457 146.809 31.6523C146.809 29.8477 145.824 28.9453 143.855 28.9453H141.852ZM167.516 38.0859L166.004 33.9727L164.492 38.0859H167.516ZM162.418 43.7109L161.75 45.5039C161.152 47.0977 160.168 47.8945 158.797 47.8945C157.438 47.8945 156.459 47.4785 155.861 46.6465C155.275 45.8027 154.982 45.0469 154.982 44.3789C154.982 43.7109 155.129 43.0547 155.422 42.4102L162.664 26.5547C163.391 24.9609 164.498 24.1641 165.986 24.1641C167.475 24.1641 168.582 24.9609 169.309 26.5547L176.586 42.4102C176.891 43.0664 177.043 43.7285 177.043 44.3965C177.043 45.0645 176.756 45.8145 176.182 46.6465C175.607 47.4785 174.623 47.8945 173.229 47.8945C171.846 47.8945 170.855 47.0977 170.258 45.5039L169.59 43.7109H162.418ZM187.291 29.7539V44.8711C187.291 46.9102 186.131 47.9297 183.811 47.9297C181.49 47.9297 180.33 46.9102 180.33 44.8711V29.7539H176.814C174.939 29.7539 174.002 28.8223 174.002 26.959C174.002 25.0957 174.939 24.1641 176.814 24.1641H190.842C192.717 24.1641 193.654 25.0957 193.654 26.959C193.654 28.8223 192.717 29.7539 190.842 29.7539H187.291ZM203.34 38.0859L201.828 33.9727L200.316 38.0859H203.34ZM198.242 43.7109L197.574 45.5039C196.977 47.0977 195.992 47.8945 194.621 47.8945C193.262 47.8945 192.283 47.4785 191.686 46.6465C191.1 45.8027 190.807 45.0469 190.807 44.3789C190.807 43.7109 190.953 43.0547 191.246 42.4102L198.488 26.5547C199.215 24.9609 200.322 24.1641 201.811 24.1641C203.299 24.1641 204.406 24.9609 205.133 26.5547L212.41 42.4102C212.715 43.0664 212.867 43.7285 212.867 44.3965C212.867 45.0645 212.58 45.8145 212.006 46.6465C211.432 47.4785 210.447 47.8945 209.053 47.8945C207.67 47.8945 206.68 47.0977 206.082 45.5039L205.414 43.7109H198.242ZM228.969 37.8047L232.449 42.375C232.965 43.0547 233.223 43.7812 233.223 44.5547C233.223 45.3281 232.754 46.0781 231.816 46.8047C230.879 47.5195 230.018 47.877 229.232 47.877C228.447 47.877 227.703 47.4023 227 46.4531L221.34 38.8945V44.8359C221.34 46.875 220.18 47.8945 217.859 47.8945C215.539 47.8945 214.379 46.875 214.379 44.8359V27.2227C214.379 25.1836 215.539 24.1641 217.859 24.1641H225.734C227.68 24.1641 229.297 24.9141 230.586 26.4141C231.875 27.9023 232.52 29.502 232.52 31.2129C232.52 34.2715 231.336 36.4688 228.969 37.8047ZM221.34 28.9453V34.3594H223.344C225.312 34.3594 226.297 33.457 226.297 31.6523C226.297 29.8477 225.312 28.9453 223.344 28.9453H221.34Z" fill="#F1F0F8"/>
</g>
</g>
<defs>
<filter id="filter0_d_66_8" x="0" y="0" width="276" height="80" filterUnits="userSpaceOnUse" color-interpolation-filters="sRGB">
<feFlood flood-opacity="0" result="BackgroundImageFix"/>
<feColorMatrix in="SourceAlpha" type="matrix" values="0 0 0 0 0 0 0 0 0 0 0 0 0 0 0 0 0 0 127 0" result="hardAlpha"/>
<feOffset dy="4"/>
<feGaussianBlur stdDeviation="2"/>
<feComposite in2="hardAlpha" operator="out"/>
<feColorMatrix type="matrix" values="0 0 0 0 0 0 0 0 0 0 0 0 0 0 0 0 0 0 0.25 0"/>
<feBlend mode="normal" in2="BackgroundImageFix" result="effect1_dropShadow_66_8"/>
<feBlend mode="normal" in="SourceGraphic" in2="effect1_dropShadow_66_8" result="shape"/>
</filter>
<filter id="filter1_i_66_8" x="40.7598" y="23.4609" width="192.463" height="28.6445" filterUnits="userSpaceOnUse" color-interpolation-filters="sRGB">
<feFlood flood-opacity="0" result="BackgroundImageFix"/>
<feBlend mode="normal" in="SourceGraphic" in2="BackgroundImageFix" result="shape"/>
<feColorMatrix in="SourceAlpha" type="matrix" values="0 0 0 0 0 0 0 0 0 0 0 0 0 0 0 0 0 0 127 0" result="hardAlpha"/>
<feOffset dy="4"/>
<feGaussianBlur stdDeviation="2"/>
<feComposite in2="hardAlpha" operator="arithmetic" k2="-1" k3="1"/>
<feColorMatrix type="matrix" values="0 0 0 0 0 0 0 0 0 0 0 0 0 0 0 0 0 0 0.25 0"/>
<feBlend mode="normal" in2="shape" result="effect1_innerShadow_66_8"/>
</filter>
</defs>
</svg>
