<svg width="47" height="41" viewBox="0 0 47 41" fill="none" xmlns="http://www.w3.org/2000/svg">
<g id="Group 10">
<g id="ou" filter="url(#filter0_i_61_2)">
<path d="M25.8379 20.8008C25.8379 24.4688 24.6484 27.4395 22.2695 29.7129C19.8906 31.9746 16.8789 33.1055 13.2344 33.1055C9.58984 33.1055 6.58984 31.9746 4.23438 29.7129C1.87891 27.4395 0.701172 24.4688 0.701172 20.8008C0.701172 17.1328 1.87305 14.1621 4.2168 11.8887C6.56055 9.60352 9.57812 8.46094 13.2695 8.46094C16.9727 8.46094 19.9902 9.60352 22.3223 11.8887C24.666 14.1621 25.8379 17.1328 25.8379 20.8008ZM17.5059 16.3887C16.4512 15.2285 15.0449 14.6484 13.2871 14.6484C11.5293 14.6484 10.1172 15.2344 9.05078 16.4062C7.98438 17.5664 7.45117 19.0371 7.45117 20.8184C7.45117 22.5879 7.98438 24.0469 9.05078 25.1953C10.1172 26.3438 11.5234 26.918 13.2695 26.918C15.0273 26.918 16.4336 26.3379 17.4883 25.1777C18.5547 24.0176 19.0879 22.5527 19.0879 20.7832C19.0879 19.0137 18.5605 17.5488 17.5059 16.3887ZM46.0352 26.4609C46.0352 28.6992 45.0801 30.3633 43.1699 31.4531C41.2715 32.5312 39.1094 33.0703 36.6836 33.0703C34.2578 33.0703 32.0898 32.5312 30.1797 31.4531C28.2812 30.3633 27.332 28.6992 27.332 26.4609V12.2227C27.332 10.1836 28.4922 9.16406 30.8125 9.16406C33.1328 9.16406 34.293 10.1836 34.293 12.2227V25.4414C34.293 26.7773 35.0898 27.4453 36.6836 27.4453C38.2773 27.4453 39.0742 26.7773 39.0742 25.4414V12.2227C39.0742 10.1836 40.2344 9.16406 42.5547 9.16406C44.875 9.16406 46.0352 10.1836 46.0352 12.2227V26.4609Z" fill="#F1F0F8"/>
</g>
</g>
<defs>
<filter id="filter0_i_61_2" x="0.701172" y="8.46094" width="45.334" height="28.6445" filterUnits="userSpaceOnUse" color-interpolation-filters="sRGB">
<feFlood flood-opacity="0" result="BackgroundImageFix"/>
<feBlend mode="normal" in="SourceGraphic" in2="BackgroundImageFix" result="shape"/>
<feColorMatrix in="SourceAlpha" type="matrix" values="0 0 0 0 0 0 0 0 0 0 0 0 0 0 0 0 0 0 127 0" result="hardAlpha"/>
<feOffset dy="4"/>
<feGaussianBlur stdDeviation="2"/>
<feComposite in2="hardAlpha" operator="arithmetic" k2="-1" k3="1"/>
<feColorMatrix type="matrix" values="0 0 0 0 0 0 0 0 0 0 0 0 0 0 0 0 0 0 0.25 0"/>
<feBlend mode="normal" in2="shape" result="effect1_innerShadow_61_2"/>
</filter>
</defs>
</svg>
